<?xml version="1.0" encoding="utf-8"?>
<!-- Generator: Adobe Illustrator 27.3.0, SVG Export Plug-In . SVG Version: 6.00 Build 0)  -->
<svg version="1.1" id="Camada_2" xmlns="http://www.w3.org/2000/svg" xmlns:xlink="http://www.w3.org/1999/xlink" x="0px" y="0px"
	 viewBox="0 0 1080 1080" style="enable-background:new 0 0 1080 1080;" xml:space="preserve">
<style type="text/css">
	.st0{fill:#ffffff;}
</style>
<g>
	<g>
		<path class="st0" d="M1106.43,7.79c3.22,0,3.22-5,0-5C1103.21,2.79,1103.21,7.79,1106.43,7.79L1106.43,7.79z"/>
	</g>
</g>
<g>
	<g>
		<path class="st0" d="M992.07,519.77c-2.26-24.05-14.27-45.72-31.5-62.39c-18.63-18.03-42.45-29.33-67.07-36.69
			c-14.3-4.27-28.93-7.26-43.61-9.87c0,4.82,0,9.64,0,14.46c20.2-3.37,34.59-22.42,37.6-41.87c1.65-10.68,0.61-21.17-3.79-31.08
			c-4.58-10.32-12.31-18.78-21.35-25.38c-19.06-13.92-45.74-18.81-68.57-13.08c-24.2,6.07-40.52,27.34-43.63,51.59
			c-3.52,27.48,12.24,53.74,34.24,69.07c1.93-4.57,3.85-9.14,5.78-13.71c-30.67-8.72-64.34-6.69-93.77,5.59
			c-8.59,3.58-16.81,7.84-24.54,13.04c3.67,2.82,7.34,5.65,11.02,8.47c4.13-18.55-2.04-37.66-14.57-51.67
			c-12.7-14.2-31.5-21.26-50.32-17.91c-18.2,3.23-34.91,16.58-42.76,33.21c-8.39,17.78-6.85,38.38,4.73,54.43
			c12.95,17.94,34.07,28.31,56.21,25.3c-1.93-4.57-3.85-9.14-5.78-13.71c-25.26,18.2-44.46,43.18-56.2,71.96
			c-5.78,14.17-9.33,29.09-10.89,44.3c-1.85,18.14-0.03,36.41,2.93,54.33c2.99,18.11,6.82,36.22,11.23,54.04
			c4.07,16.44,9.61,32.59,18.16,47.28c14.87,25.53,37.33,46.24,62.81,60.94c28.54,16.47,60.72,25.01,93.44,27.65
			c35.96,2.9,72.45-1.41,107.52-9.45c16.83-3.86,33.32-9.06,48.91-16.56c12.84-6.18,24.76-13.92,35.96-22.7
			c22.19-17.4,40.57-39.5,55.16-63.54c14.94-24.62,26.08-51.65,33.6-79.42c3.79-14,6.74-28.29,8.51-42.69
			c1.69-13.79,1.76-28.74-3.66-41.77c-2.79-6.72-6.81-12.83-12.5-17.47c-1.1,4.18-2.21,8.36-3.31,12.54
			c24.2-8.08,49.96-23.27,54.32-50.75c2.05-12.92-0.8-26.17-10.12-35.75c-8.17-8.39-19.59-11.92-31.01-12.63
			c-12.87-0.8-25.97,1.9-38.3,5.36c-5.49,1.54-7.23,8.48-3.31,12.54c0.82,0.85,1.58,1.74,2.35,2.64c-1.12-1.31,0.14,0.23,0.39,0.59
			c0.38,0.56,0.75,1.13,1.1,1.7c0.6,0.99,1.14,2.01,1.64,3.05c0.12,0.26,0.23,0.53,0.36,0.78c0.5,0.94-0.42-1.21-0.08-0.2
			c0.21,0.64,0.48,1.26,0.7,1.89c0.81,2.39,1.33,4.83,1.73,7.31c-0.21-1.33-0.07-0.44,0,0.32c0.05,0.58,0.09,1.16,0.12,1.75
			c0.07,1.36,0.08,2.73,0.03,4.1c-0.04,1.18-0.16,2.34-0.26,3.51c-0.13,1.49,0.23-1.13-0.05,0.34c-0.13,0.68-0.23,1.35-0.37,2.03
			c-0.51,2.5-1.22,4.96-2.12,7.35c-0.15,0.41-1.01,2.25-0.24,0.66c-0.25,0.53-0.48,1.07-0.74,1.6c-0.55,1.14-1.15,2.25-1.8,3.34
			c-0.64,1.08-1.33,2.14-2.07,3.16c-0.39,0.54-1.08,1.29-0.23,0.33c-0.45,0.51-0.86,1.04-1.31,1.54c-0.96,1.08-1.97,2.1-3.04,3.07
			c-0.5,0.45-1.04,0.86-1.53,1.31c-0.61,0.56,0.32-0.25,0.38-0.29c-0.32,0.22-0.62,0.45-0.94,0.67c-1.11,0.77-2.26,1.48-3.45,2.12
			c-0.69,0.37-1.39,0.7-2.09,1.04c-0.14,0.07-1.06,0.44-0.18,0.09c1.02-0.41-0.73,0.25-0.76,0.26c-3.8,1.39-6.37,5.09-5.24,9.23
			c1.01,3.67,5.4,6.63,9.23,5.24c24.44-8.9,37.02-37.85,29.91-62.41c-2.04-7.03-5.73-13.47-10.82-18.73
			c-1.1,4.18-2.21,8.36-3.31,12.54c4.77-1.34,9.58-2.52,14.44-3.43c1.18-0.22,2.36-0.42,3.55-0.61c0.14-0.02,2.49-0.36,0.85-0.14
			c0.59-0.08,1.19-0.15,1.78-0.21c2.47-0.28,4.95-0.46,7.44-0.53c2.42-0.07,4.85-0.02,7.27,0.17c0.56,0.04,1.13,0.11,1.69,0.16
			c2.15,0.19-0.95-0.17,0.34,0.04c1.2,0.19,2.4,0.41,3.58,0.68c1.06,0.25,2.11,0.53,3.15,0.86c0.62,0.19,1.23,0.4,1.83,0.63
			c-0.02-0.01,1.92,0.79,0.89,0.34c-1.03-0.45,0.87,0.43,0.85,0.42c0.48,0.24,0.95,0.49,1.41,0.75c1.03,0.57,1.99,1.22,2.97,1.88
			c1.71,1.14-1-0.99,0.52,0.41c0.4,0.37,0.82,0.71,1.21,1.09c0.8,0.76,1.57,1.56,2.28,2.4c0.21,0.24,1.07,1.41,0.34,0.39
			c0.36,0.5,0.7,1,1.03,1.52c0.71,1.13,1.35,2.3,1.9,3.51c-0.62-1.36,0.28,0.8,0.31,0.89c0.2,0.57,0.37,1.14,0.54,1.72
			c0.33,1.16,0.58,2.34,0.79,3.53c0.23,1.34-0.08-1.76,0.06,0.53c0.04,0.61,0.1,1.21,0.12,1.82c0.06,1.35,0.04,2.7-0.04,4.05
			c-0.05,0.74-0.11,1.48-0.2,2.21c0.16-1.34-0.06,0.26-0.12,0.58c-0.22,1.23-0.5,2.44-0.82,3.65c-0.33,1.21-0.71,2.4-1.13,3.58
			c-0.21,0.59-0.43,1.18-0.68,1.75c0.49-1.14-0.53,1.05-0.65,1.28c-1.12,2.22-2.41,4.36-3.9,6.35c-0.11,0.14-1.11,1.35-1.84,2.17
			c-1.06,1.18-2.17,2.32-3.33,3.41c-8.48,8-20.06,13.24-31.3,16.99c-4.85,1.62-7.98,8.72-3.31,12.54c1.18,0.96,2.31,1.97,3.36,3.07
			c0.56,0.58,1.08,1.19,1.6,1.79c0.05,0.05,0.74,0.94,0.26,0.31c-0.54-0.71,0.52,0.75,0.61,0.89c0.83,1.22,1.58,2.49,2.25,3.79
			c0.37,0.71,0.7,1.43,1.04,2.15c-0.55-1.2,0.26,0.68,0.4,1.07c1.12,3.07,1.92,6.26,2.46,9.48c0.06,0.33,0.31,2.09,0.23,1.48
			c-0.11-0.9,0.06,0.6,0.08,0.79c0.04,0.36,0.07,0.72,0.11,1.08c0.15,1.7,0.25,3.4,0.3,5.1c0.1,3.44,0,6.88-0.24,10.31
			c-0.11,1.59-0.25,3.18-0.42,4.76c-0.09,0.85-0.19,1.69-0.29,2.54c-0.04,0.36-0.09,0.72-0.14,1.08c-0.17,1.32,0.27-1.76-0.08,0.51
			c-1.02,6.72-2.21,13.4-3.63,20.04c-2.87,13.43-6.58,26.68-11.13,39.64c-1.16,3.31-2.38,6.59-3.65,9.85
			c-0.59,1.51-1.19,3.03-1.81,4.53c-0.28,0.69-0.57,1.39-0.86,2.08c-0.58,1.4-0.25,0.59-0.12,0.28c-0.2,0.46-0.39,0.92-0.59,1.38
			c-2.71,6.3-5.64,12.5-8.79,18.59c-12.69,24.55-27.51,45.42-47.3,64.25c-4.81,4.58-9.85,8.94-15.08,13.03
			c-0.67,0.53-0.04,0.03,0.09-0.06c-0.38,0.29-0.77,0.59-1.15,0.88c-0.58,0.44-1.16,0.87-1.74,1.3c-1.46,1.08-2.93,2.13-4.42,3.16
			c-2.68,1.86-5.41,3.66-8.18,5.38c-5.67,3.53-11.54,6.75-17.57,9.63c-1.54,0.74-3.1,1.46-4.66,2.15c-0.67,0.3-1.35,0.59-2.02,0.88
			c-0.8,0.34-0.05,0.02,0.09-0.04c-0.57,0.24-1.14,0.47-1.71,0.7c-3.89,1.58-7.83,3.01-11.81,4.33c-16.67,5.53-34,9.2-51.32,12.04
			c-16.47,2.71-33.41,4.34-50.43,4.58c-16.92,0.24-33.85-0.91-50.13-3.94c-8.25-1.54-16.43-3.51-24.46-5.99
			c-3.39-1.04-6.75-2.18-10.08-3.41c-1.55-0.57-3.09-1.16-4.62-1.77c-0.83-0.33-1.65-0.66-2.47-1c0,0-1.15-0.48-0.51-0.21
			c0.65,0.28-1.05-0.46-1.21-0.52c-12.8-5.59-25.01-12.56-36.26-20.85c-0.71-0.53-1.42-1.06-2.13-1.59
			c-0.68-0.52-0.12-0.09,0.01,0.02c-0.3-0.23-0.6-0.47-0.9-0.7c-1.49-1.17-2.96-2.37-4.4-3.59c-2.6-2.19-5.14-4.47-7.6-6.81
			c-5-4.77-9.69-9.85-14.03-15.22c-0.31-0.39-0.62-0.78-0.94-1.18c0,0-0.76-0.97-0.34-0.43s-0.33-0.44-0.33-0.43
			c-0.3-0.4-0.6-0.8-0.9-1.2c-1.04-1.41-2.06-2.84-3.05-4.28c-1.91-2.79-3.73-5.65-5.44-8.57c-3.63-6.18-6.78-12.65-9.28-19.21
			c-6.18-16.25-9.65-33.36-13.24-50.32c-3.68-17.37-7.24-34.7-8.34-52.36c-0.52-8.31-0.5-16.66,0.25-24.96
			c0.38-4.2,0.56-5.58,1.26-9.63c0.62-3.59,1.36-7.17,2.23-10.71c1.71-6.96,3.92-13.79,6.57-20.45c0.16-0.4,0.74-1.83,0.66-1.64
			c-0.25,0.61,0.24-0.57,0.23-0.54c0.21-0.48,0.41-0.96,0.63-1.43c0.74-1.67,1.51-3.32,2.3-4.97c1.59-3.28,3.3-6.52,5.11-9.68
			c7.28-12.71,15.04-22.77,25.56-32.97c2.43-2.36,4.94-4.63,7.53-6.82c3.07-2.59,4.56-3.75,7.73-6.04c3.03-2.18,4.66-5.74,3.07-9.37
			c-1.63-3.72-5.02-4.86-8.85-4.34c1.42-0.19-1.02,0.06-1.49,0.09c-0.93,0.06-1.86,0.08-2.78,0.08c-0.93,0-1.85-0.03-2.78-0.1
			c-0.46-0.03-0.92-0.08-1.38-0.11c-2.21-0.13,1.42,0.29-0.75-0.08c-1.82-0.31-3.63-0.68-5.41-1.18c-0.89-0.25-1.78-0.52-2.65-0.82
			c-0.44-0.15-0.88-0.3-1.31-0.47c-0.16-0.06-1.86-0.73-1.04-0.39c0.81,0.33-0.53-0.24-0.7-0.32c-0.42-0.19-0.84-0.39-1.26-0.6
			c-0.84-0.41-1.66-0.84-2.47-1.29c-1.73-0.96-3.41-2.02-5.03-3.17c-0.38-0.27-0.76-0.55-1.13-0.82c0.99,0.73,0.03,0.02-0.14-0.12
			c-0.81-0.67-1.62-1.34-2.4-2.05c-1.47-1.33-2.87-2.74-4.19-4.22c-0.62-0.7-1.22-1.41-1.81-2.13c0.77,0.94-0.66-0.89-0.92-1.27
			c-1.2-1.71-2.3-3.49-3.28-5.33c-0.44-0.82-0.85-1.64-1.24-2.48c-0.19-0.42-0.39-0.84-0.57-1.27c0.13,0.3,0.44,1.23-0.03-0.13
			c-0.64-1.86-1.28-3.7-1.74-5.62c-0.22-0.9-0.41-1.81-0.57-2.72c-0.04-0.21-0.25-1.65-0.13-0.72c0.13,0.93-0.05-0.53-0.07-0.73
			c-0.19-1.99-0.24-3.99-0.14-5.98c0.04-0.94,0.13-1.87,0.22-2.8c-0.15,1.43,0.17-0.99,0.26-1.47c0.4-2.06,0.94-4.09,1.61-6.07
			c0.3-0.88,0.63-1.76,0.97-2.62c-0.54,1.33,0.54-1.14,0.67-1.4c0.87-1.79,1.86-3.52,2.93-5.19c0.51-0.79,1.03-1.57,1.58-2.33
			c0.1-0.14,0.98-1.32,0.47-0.65c-0.51,0.67,0.39-0.49,0.51-0.62c1.27-1.55,2.62-3.03,4.05-4.43c0.76-0.74,1.54-1.46,2.34-2.16
			c0.35-0.31,0.71-0.62,1.08-0.92c0.14-0.11,1.28-1.03,0.62-0.52c-0.66,0.52,0.51-0.37,0.65-0.48c0.38-0.28,0.76-0.55,1.15-0.82
			c0.87-0.6,1.76-1.18,2.66-1.73c1.6-0.97,3.26-1.86,4.96-2.66c0.42-0.2,0.85-0.39,1.28-0.58c-1.17,0.51-0.07,0.03,0.15-0.05
			c1.09-0.41,2.19-0.81,3.3-1.15c1.78-0.55,3.59-1,5.42-1.34c0.46-0.09,0.92-0.16,1.38-0.23c-0.31,0.05-1.41,0.13,0.09,0
			c1.05-0.09,2.09-0.19,3.14-0.22c1.88-0.07,3.76-0.01,5.63,0.17c0.21,0.02,1.66,0.2,0.71,0.07c-0.95-0.13,0.46,0.09,0.68,0.12
			c1,0.18,1.99,0.39,2.97,0.63c1.74,0.44,3.42,1.03,5.12,1.62c1.35,0.47,0.36,0.13,0.07,0c0.41,0.17,0.82,0.36,1.22,0.55
			c1.01,0.47,2.01,0.98,2.99,1.52c1.57,0.87,3.08,1.83,4.55,2.86c0.37,0.26,0.73,0.53,1.09,0.79c-0.25-0.18-1.03-0.86,0.08,0.07
			c0.78,0.65,1.56,1.29,2.31,1.98c1.59,1.44,3.09,2.97,4.5,4.59c0.3,0.34,0.59,0.69,0.88,1.03c0.11,0.13,1.23,1.54,0.68,0.83
			c-0.53-0.69,0.32,0.44,0.43,0.6c0.4,0.55,0.78,1.11,1.16,1.67c1.19,1.78,2.28,3.64,3.26,5.55c0.46,0.9,0.89,1.82,1.31,2.75
			c0.49,1.07-0.4-1.02,0.03,0.08c0.2,0.52,0.41,1.05,0.6,1.58c0.73,2,1.33,4.05,1.8,6.13c0.22,0.98,0.39,1.97,0.58,2.96
			c0.28,1.45,0.05,0.31,0.02,0c0.08,0.67,0.15,1.33,0.2,2c0.16,2.01,0.18,4.02,0.07,6.03c-0.02,0.45-0.06,0.9-0.09,1.34
			c-0.02,0.19-0.3,2.38-0.05,0.68c-0.17,1.12-0.39,2.23-0.63,3.33c-0.66,2.96,0.2,6.03,2.69,7.88c2.28,1.71,5.81,2.28,8.33,0.59
			c24.59-16.54,53.4-23.86,82.9-21.52c7.87,0.62,15.52,2.03,23.85,4.4c3.56,1.01,7.48-0.94,8.85-4.34c1.46-3.63,0.08-7.17-3.07-9.37
			c-7.5-5.23-14.65-12.83-19.49-21.14c-4.84-8.3-7.75-17.73-7.83-27.01c-0.08-8.96,2.25-17.57,6.81-25.33
			c0.55-0.93,1.13-1.85,1.73-2.75c0.34-0.5,0.69-0.98,1.03-1.48c1.29-1.89-0.49,0.57,0.35-0.49c1.56-1.97,3.27-3.83,5.11-5.54
			c0.88-0.81,1.78-1.6,2.71-2.34c-0.25,0.2-1.01,0.71,0.19-0.13c0.49-0.34,0.97-0.69,1.47-1.03c2.19-1.47,4.52-2.81,6.95-3.83
			c9.6-4.03,20.63-4.52,31.44-3.34c2.31,0.25-0.85-0.14,0.53,0.07c0.6,0.09,1.2,0.18,1.8,0.29c1.2,0.21,2.39,0.44,3.57,0.7
			c2.37,0.52,4.72,1.14,7.03,1.87c1.16,0.36,2.3,0.76,3.44,1.17c0.45,0.17,0.91,0.34,1.36,0.51c0.07,0.03,2.27,0.94,0.89,0.34
			c2.21,0.95,4.37,2.01,6.48,3.18c2.09,1.16,4.12,2.42,6.08,3.78c0.39,0.27,0.77,0.56,1.16,0.83c1.89,1.32-1.05-0.9,0.74,0.55
			c0.92,0.74,1.82,1.5,2.7,2.29c1.75,1.57,3.41,3.24,4.96,5.01c0.31,0.35,0.61,0.71,0.91,1.07c0.06,0.08,1.48,1.9,0.57,0.69
			c0.71,0.94,1.38,1.9,2.02,2.89c1.29,1.98,2.45,4.05,3.46,6.19c-0.04-0.08,0.91,2.06,0.48,1.03c-0.41-0.97,0.35,0.93,0.33,0.89
			c0.4,1.08,0.75,2.17,1.05,3.28c0.25,0.9,0.47,1.82,0.66,2.74c0.13,0.61,0.22,1.23,0.34,1.85c0.07,0.35,0.15,1.46-0.01-0.13
			c0.21,2.2,0.36,4.38,0.32,6.59c-0.02,1.15-0.09,2.31-0.19,3.46c0,0.02-0.22,2.08-0.08,0.88c0.13-1.03-0.21,1.28-0.25,1.5
			c-0.41,2.27-0.97,4.52-1.69,6.71c-0.39,1.19-0.82,2.37-1.29,3.53c0.11-0.26,0.63-1.34,0.01-0.07c-0.27,0.56-0.53,1.13-0.8,1.69
			c-1.06,2.12-2.28,4.16-3.65,6.1c-0.29,0.42-0.59,0.83-0.91,1.24c1.06-1.39-0.21,0.21-0.36,0.38c-0.79,0.92-1.61,1.81-2.48,2.66
			c-0.72,0.7-1.46,1.38-2.23,2.03c-0.23,0.19-1.83,1.35-0.37,0.32c-0.49,0.35-0.97,0.7-1.47,1.03c-1,0.66-2.03,1.28-3.09,1.84
			c-0.35,0.19-0.71,0.37-1.07,0.54c-0.61,0.29-1.63,0.67-0.42,0.21c-2.32,0.87-4.65,1.53-7.1,1.94c-7.19,1.2-7.13,13.2,0,14.46
			c24.44,4.34,49.7,9.86,71.68,20.55c5.45,2.65,10.76,5.6,15.83,8.92c5.12,3.34,8.22,5.71,12.59,9.56
			c8.34,7.36,14.6,14.6,20.07,23.65c3.33,5.5,5.47,9.98,7.3,15.31c0.98,2.86,1.81,5.77,2.46,8.72c0.3,1.36,0.56,2.72,0.79,4.09
			c0.1,0.62,0.21,1.25,0.29,1.88c-0.18-1.35,0.14,1.54,0.17,1.8c0.38,4.03,3.18,7.5,7.5,7.5
			C988.34,527.27,992.45,523.82,992.07,519.77L992.07,519.77z"/>
	</g>
</g>
<g>
	<g>
		<path class="st0" d="M980.09,517.46c-2.36,4.77-4.72,9.54-7.09,14.31c-0.9,1.82-1.31,3.77-0.76,5.78
			c0.48,1.74,1.82,3.62,3.45,4.48c1.74,0.92,3.85,1.38,5.78,0.76c1.79-0.58,3.62-1.71,4.48-3.45c2.36-4.77,4.72-9.54,7.09-14.31
			c0.9-1.82,1.31-3.77,0.76-5.78c-0.48-1.74-1.82-3.62-3.45-4.48c-1.74-0.92-3.85-1.38-5.78-0.76
			C982.79,514.59,980.95,515.72,980.09,517.46L980.09,517.46z"/>
	</g>
</g>
<g>
	<g>
		<path class="st0" d="M695.72,493.28c3.12-0.18,6.23-0.05,9.33,0.35c-0.66-0.09-1.33-0.18-1.99-0.27
			c4.52,0.63,8.91,1.84,13.12,3.61c-0.6-0.25-1.19-0.5-1.79-0.76c3.53,1.51,6.89,3.39,10,5.64c0.37,0.27,0.72,0.55,1.09,0.81
			c-2-1.42-0.42-0.31,0,0.04c0.7,0.58,1.38,1.18,2.05,1.8c1.43,1.33,2.77,2.74,4.03,4.23c2.55,3,8.02,2.82,10.61,0
			c2.93-3.2,2.72-7.4,0-10.61c-11.23-13.23-29.14-20.83-46.44-19.85c-3.91,0.22-7.69,3.29-7.5,7.5
			C688.4,489.65,691.53,493.52,695.72,493.28L695.72,493.28z"/>
	</g>
</g>
<g>
	<g>
		<path class="st0" d="M795.58,457.31c-17.18,4.05-33.18,12.7-46.23,24.56c-3.51,3.19-6.77,6.64-9.77,10.31
			c-1.3,1.59-2.2,3.18-2.2,5.3c0,1.84,0.82,4.04,2.2,5.3c2.75,2.52,7.96,3.24,10.61,0c2.45-3,5.07-5.85,7.86-8.53
			c1.44-1.39,2.93-2.73,4.46-4.02c0.71-0.6,1.43-1.2,2.16-1.78c0.42-0.34,2.04-1.47,0.06-0.06c0.38-0.27,0.74-0.57,1.12-0.84
			c6.27-4.66,13.1-8.54,20.29-11.58c-0.6,0.25-1.19,0.5-1.79,0.76c4.93-2.06,10.01-3.72,15.21-4.95c3.82-0.9,6.45-5.47,5.24-9.23
			C803.52,458.56,799.68,456.34,795.58,457.31L795.58,457.31z"/>
	</g>
</g>
<g>
	<g>
		<path class="st0" d="M604.49,410.61c-7.31,7.52-9.41,18.51-7.28,28.57c2.22,10.52,9.24,19.12,18.46,24.44
			c4.79,2.76,10.1,4.67,15.52,5.75c5.33,1.06,10.99,1.56,16.4,0.9c5.2-0.63,10.77-2.52,13.42-7.42c2.86-5.28,1.7-12.11,0.91-17.78
			c-1.56-11.14-5.47-22.1-12.57-30.94c-6.64-8.27-16.03-13.58-26.57-14.87c-9.87-1.2-20.53,1.69-27.26,9.31
			c-6.88,7.79-8.71,18.79-6.44,28.75c1.16,5.07,3.44,9.84,6.65,13.93c3.74,4.76,8.64,8.52,13.76,11.69
			c10.47,6.48,22.81,12.08,35.41,10.33c5.61-0.78,11.04-3.02,15.24-6.88c3.67-3.37,6.13-8,7.02-12.9
			c1.86-10.19-1.89-21.16-9.32-28.34c-8.29-8-19.67-11.58-30.91-12.7c-5.87-0.59-12.4-1.02-17.92,1.4
			c-4.18,1.83-7.52,5.43-9.47,9.52c-2.04,4.28-2.86,9.06-2.23,13.77c0.67,5.02,3.05,9.55,6.53,13.21c3.66,3.86,8.46,6.58,13.5,8.2
			c2.52,0.81,5.13,1.29,7.77,1.55c3.03,0.29,6.39,0.36,9.3-0.64c11.19-3.88,13.78-19.39,7.11-28.22
			c-6.65-8.8-20.91-10.46-28.62-2.06c-3.85,4.19-5.05,10.15-2.38,15.3c2.47,4.77,8.09,7,13.1,4.96c5.17-2.11,7.68-8.16,4.3-12.99
			c-1.54-2.21-3.95-3.85-6.71-3.92c-2.48-0.07-4.74,1.23-6.06,3.3c-2.22,3.49-1.67,9.12,2.41,11c1.23,0.56,2.69,0.35,3.42-0.9
			c0.63-1.08,0.34-2.85-0.9-3.42c-0.19-0.09-0.38-0.18-0.56-0.29c-0.35-0.22,0.33,0.37-0.15-0.13c-0.05-0.06-0.29-0.36-0.06-0.04
			c-0.09-0.12-0.18-0.27-0.24-0.41c-0.32-0.68,0.06,0.25-0.07-0.18c-0.06-0.2-0.11-0.39-0.15-0.59c0.08,0.4-0.01-0.63,0-0.82
			c0.02-0.31,0.21-0.99,0.42-1.38c0.27-0.5,0.09-0.28,0.5-0.67c0.04-0.04,0.34-0.33,0.06-0.08c0.02-0.02,0.66-0.38,0.27-0.21
			c1.36-0.59,2.82,0.26,3.68,1.52c0.92,1.36,0.92,2.95,0.06,4.07c-2.06,2.66-6.2,2.52-8.28-0.18c-2.51-3.26-1.69-7.7,1-10.55
			c5.91-6.27,17.13-4.7,21.57,2.54c2.24,3.66,2.65,8.21,1.33,12.27c-0.68,2.08-1.89,3.97-3.5,5.46c-1.91,1.76-4.23,2.34-6.78,2.41
			c-8.56,0.23-17.83-3.09-23.19-10.02c-4.78-6.17-5.15-14.62-1.1-21.22c1.79-2.92,4.5-5.25,7.79-6.2c2.7-0.79,5.55-0.77,8.34-0.71
			c2.51,0.06,5.01,0.23,7.5,0.53c9.41,1.14,19.05,4.46,25.94,11.19c5.86,5.73,9.18,14.48,8,22.67c-0.58,4.01-2.29,7.8-5.16,10.69
			c-3.28,3.3-7.65,5.18-12.19,6.01c-10.66,1.95-21.3-2.79-30.34-7.96c-8.3-4.75-16.32-10.95-19.68-20.25
			c-2.82-7.8-2.77-16.93,1.4-24.25c4.14-7.25,11.91-11.28,20.11-11.72c8.29-0.44,16.94,2.24,23.34,7.6
			c7.42,6.21,12.19,14.87,14.89,24.06c1.35,4.6,2.23,9.33,2.66,14.1c0.39,4.26,1.1,9.79-2.67,12.82c-3.34,2.68-8.22,2.93-12.31,2.91
			c-4.7-0.02-9.36-0.65-13.89-1.91c-8.72-2.43-17.2-7.42-22.22-15.14c-4.53-6.97-6.22-15.92-4.1-24c1.02-3.89,2.93-7.45,5.74-10.34
			C610.27,411.83,606.73,408.29,604.49,410.61L604.49,410.61z"/>
	</g>
</g>
<g>
	<g>
		<path class="st0" d="M794.98,341.06c-13.46,2.29-21.66,15.52-24.55,27.88c-3.27,13.96-1.37,29.5,5.38,42.16
			c6.65,12.47,18.5,21.63,32.5,24.17c6.74,1.22,13.79,1.02,20.32-1.13c6.49-2.13,12.29-6.08,16.7-11.29
			c9.14-10.8,12.45-25.42,10.46-39.27c-2.23-15.49-10.67-29.5-20.89-41.05c-5.32-6.02-11.56-10.89-19.64-12.37
			c-7.8-1.43-15.78-0.23-23.39,1.68c-3.77,0.95-7.52,2.05-11.22,3.27c-3.59,1.18-7.09,2.62-10.06,5
			c-5.97,4.79-6.98,12.58-5.53,19.68c1.53,7.46,5.42,14.33,9.2,20.85c4.18,7.2,8.87,14.08,13.97,20.65
			c2.51,3.23,5.13,6.37,7.85,9.42c2.65,2.97,5.36,5.92,8.53,8.35c3.29,2.52,6.98,4.15,11.12,4.61c4,0.44,8.18-0.3,11.91-1.73
			c13.1-5.03,21.84-18.16,22.81-31.98c1.06-15.27-7.03-30.54-19.01-39.69c-5.96-4.55-13.13-6.62-20.53-5.01
			c-6.77,1.47-12.83,5.74-17.37,10.87c-9.56,10.82-13.45,26.88-9.51,40.84c1.93,6.84,5.83,12.94,11.58,17.17
			c5.11,3.76,11.6,5.89,17.95,5.84c6.63-0.05,12.98-2.62,17.53-7.5c5.09-5.46,7.67-12.69,9.75-19.72c1.29-4.37,2.33-8.88,1.62-13.45
			c-0.51-3.29-2.03-6.26-4.11-8.82c-4.16-5.13-10.5-8.12-16.5-10.5c-3.45-1.37-7.59-3.35-11.35-2.11c-3.67,1.22-6.06,4.81-7.81,8.07
			c-3.74,6.96-4.85,14.92-5.44,22.7c-0.3,3.95-1.08,8.44,0.62,12.16c1.55,3.4,5.27,5.5,8.79,6.29c6.5,1.45,13.3-0.9,18.1-5.38
			c4.71-4.4,7.57-11.36,5.63-17.74c-0.97-3.21-3.1-6.19-6.35-7.35c-3.56-1.27-7.26,0.3-9.82,2.84c-2.73,2.71-4.48,6.37-5.85,9.92
			c-1.47,3.81-2.27,7.84-2.52,11.91c-0.13,2.1,2.88,3.39,4.27,1.77c4.57-5.33,7.8-11.68,9.23-18.56c0.28-1.32-0.39-2.7-1.75-3.08
			c-1.24-0.34-2.8,0.42-3.08,1.75c-1.26,6.03-3.93,11.67-7.95,16.35c1.42,0.59,2.85,1.18,4.27,1.77c0.23-3.7,1.07-7.33,2.43-10.79
			c1.14-2.89,2.7-6.13,5.16-8.13c1.98-1.61,4.18-1.56,5.72,0.25c1.56,1.83,2.06,4.54,1.77,6.9c-0.64,5.16-4.53,9.45-9.13,11.63
			c-2.34,1.11-4.95,1.58-7.52,1.34c-2.43-0.22-5.45-1.29-6.76-3.54c-0.88-1.52-0.7-3.42-0.61-5.11c0.09-1.73,0.2-3.46,0.33-5.19
			c0.25-3.37,0.61-6.73,1.29-10.05c0.68-3.3,1.64-6.58,3.18-9.59c1.14-2.23,3.05-6.19,5.9-6.5c1.67-0.18,3.43,0.63,4.96,1.18
			c1.37,0.5,2.73,1.02,4.08,1.58c2.68,1.11,5.3,2.41,7.73,3.99c4.69,3.04,8.37,7.45,8.32,13.29c-0.03,3.81-1.27,7.56-2.4,11.17
			c-0.98,3.11-2.08,6.19-3.58,9.09c-2.69,5.18-6.69,9.64-12.42,11.33c-10.64,3.15-22.52-2.54-27.84-12.08
			c-6.08-10.9-4.85-25.48,1.17-36.15c5.57-9.85,17.14-19.24,29.09-15.33c6.21,2.03,11.53,7.29,15.32,12.45
			c3.98,5.41,6.8,11.6,7.97,18.23c2.1,11.87-2.39,24.64-12.04,32.06c-4.97,3.82-11.83,6.47-18.15,5.2
			c-6.87-1.38-11.72-7.34-16.11-12.34c-9.86-11.2-18.44-23.74-25.07-37.12c-2.59-5.23-4.99-11.51-4.12-17.45
			c0.43-2.92,1.78-5.51,3.99-7.46c2.37-2.09,5.48-3.24,8.44-4.21c6.6-2.16,13.44-4.23,20.36-5.06c6.63-0.79,13.59-0.45,19.53,2.9
			c3.14,1.77,5.77,4.23,8.2,6.86c2.38,2.57,4.63,5.27,6.71,8.09c4.13,5.57,7.78,11.61,10.35,18.06c4.79,12,5.87,25.11,1.21,37.32
			c-4.25,11.14-13.32,19.95-25.18,22.31c-11.59,2.3-24.36-1.53-33.19-9.26c-9.54-8.36-14.78-20.83-15.82-33.32
			c-0.98-11.69,1.12-24.81,8.93-34.02c3.47-4.1,7.9-7.01,13.24-7.92c1.33-0.23,2.08-1.87,1.75-3.08
			C797.67,341.4,796.32,340.84,794.98,341.06L794.98,341.06z"/>
	</g>
</g>
<g>
	<g>
		<path class="st0" d="M767.13,508.89c-21.27-5.89-43.97-5.68-65.3-0.18c-21.29,5.49-41.3,16.26-57.28,31.4
			c-17.3,16.39-31.95,39.56-30.7,64.23c0.72,14.13,6.25,27.44,11.08,40.55c4.94,13.42,9.91,26.82,15.08,40.15
			c5.17,13.35,10.54,26.62,16.26,39.75c5.42,12.45,11.03,24.91,17.47,36.88c5.49,10.21,11.93,20.21,20.46,28.17
			c9.09,8.48,20.33,13.87,32.62,15.76c12.78,1.97,25.77,0.76,38.4-1.68c11.63-2.24,23.11-5.46,34.05-10.02
			c10.96-4.56,21.34-10.41,30.47-18.04c9.24-7.73,16.77-17.28,22.21-28.03c5.69-11.25,9.28-23.42,11.88-35.72
			c2.63-12.45,4.5-25.1,6.03-37.73c2.98-24.61,3.92-50.42-3.7-74.33c-3.58-11.23-9.08-21.71-16.44-30.92
			c-6.44-8.06-14.27-14.94-22.84-20.65c-17.73-11.82-38.56-18.55-59.43-22.16c-22.56-3.89-45.69-4.34-68.47-2.47
			c-24.91,2.04-49.66,7.24-72.62,17.3c-11.35,4.98-22.26,11.16-32.12,18.69c-4.96,3.79-9.59,8.13-12.02,14
			c-2.5,6.04-2.39,12.74-1.55,19.11c1.79,13.48,6.32,26.37,11.96,38.69c5.48,11.98,11.87,23.61,19.07,34.64
			c13.02,19.95,29.21,37.85,49.41,50.69c17.72,11.26,37.86,18.68,58.54,22.13c20.89,3.49,42.37,3.11,63.1-1.32
			c20.42-4.36,40.12-12.75,57.03-25.07c19.06-13.89,35.88-32.91,42.26-56.06c6.2-22.49,1.39-48.53-16.52-64.43
			c-9.15-8.12-20.49-13.29-32.07-16.96c-12.05-3.81-24.6-6.15-37.21-7c-24.94-1.67-50.57,2.87-72.6,14.97
			c-19.83,10.89-36.23,28.35-45.66,48.94c-9.29,20.3-11.74,43.7-4.13,64.94c7.13,19.9,21.88,37.41,40.96,46.78
			c9.83,4.82,20.6,7.35,31.56,7.16c13.52-0.24,26.58-4.21,38.91-9.51c11.8-5.07,23.2-11.27,34.25-17.8
			c9.77-5.78,19.31-12.24,27.35-20.31c8.08-8.1,14.46-17.95,17.3-29.13c3.4-13.39,1.95-27.53-1.34-40.79
			c-6.14-24.79-18.22-48.11-34.56-67.69c-4-4.8-8.22-9.44-13.24-13.18c-5.29-3.94-11.39-6.2-17.98-6.65
			c-6.87-0.47-13.76,0.9-20.44,2.35c-6.92,1.51-13.79,3.21-20.61,5.11c-13.58,3.77-27,8.25-40.06,13.56
			c-10.18,4.15-20.1,9.03-29.32,15.04c-17.3,11.28-33.33,27.4-37.22,48.46c-4.61,24.99,8.74,49.56,25.71,66.99
			c16.1,16.54,37.5,28.33,60.39,31.91c22.61,3.54,46.15-1.14,65.68-13.12c19.67-12.06,34.14-31.19,39.32-53.78
			c5.15-22.48,1.42-47.27-12.24-66.13c-13.67-18.88-35.24-30.84-57.87-35.34c-26.14-5.2-53.27-0.45-77.9,8.94
			c-11.68,4.45-23.42,9.66-33.81,16.67c-9.56,6.45-17.98,14.79-22.18,25.73c-4.76,12.37-3.09,26.4,1.3,38.62
			c3.69,10.28,9.29,19.75,16.26,28.13c13.38,16.08,31.91,27.83,51.95,33.67c20.37,5.94,42.74,5.69,62.52-2.31
			c10.61-4.29,20.55-10.63,28.07-19.35c8.15-9.46,12.56-21.02,14.05-33.33c1.59-13.11,0.05-26.57-2.54-39.45
			c-2.68-13.27-7.05-26.31-13.64-38.17c-10.9-19.62-28.38-35.69-48.81-44.96c-20.43-9.27-43.47-11.57-65.07-5.11
			c-20.97,6.27-39.88,19.97-51.46,38.65c-6.45,10.41-10.78,22.58-11.11,34.89c-0.18,6.55,0.94,13.12,3.44,19.18
			c2.35,5.7,5.68,10.84,9.53,15.65c7.8,9.72,17.43,18.09,26.72,26.34c9.76,8.66,19.97,16.93,31.06,23.85
			c21.47,13.4,47.29,21.46,72.65,16.43c6.15-1.22,12.15-3.29,17.73-6.16c5.27-2.7,10.53-6.43,13.16-11.9
			c5.4-11.21-0.52-24.04-7.18-33.31c-11.43-15.92-28.59-27-47.35-32.28c-18.62-5.24-39.16-4.93-57.27,2.14
			c-9.98,3.89-19.54,9.73-26.87,17.62c-4.3,4.63-7.67,10-9.62,16.02c-1.97,6.07-2.53,12.61-2.08,18.95
			c1.73,24.69,16.44,46.06,33.02,63.46c8.43,8.85,17.51,17.14,26.85,25.01c9.69,8.16,19.99,15.87,31.45,21.37
			c11.05,5.3,23.33,8.54,35.65,7.14c11.3-1.28,21.63-6.16,30.33-13.41c19.63-16.36,27.52-41.57,29.98-66.2
			c1.31-13.04,1.46-26.27,0.93-39.36c-0.53-13.09-1.99-26.2-4.93-38.98c-2.9-12.56-7.32-24.83-13.61-36.09
			c-5.75-10.28-13.28-19.87-23.17-26.45c-22.04-14.66-50.18-7.58-71.71,4.36c-19.59,10.86-36.89,27.46-45.89,48.22
			c-4.29,9.89-6.68,20.46-6.49,31.27c0.19,10.38,2.55,20.68,6.92,30.1c4.31,9.3,10.76,17.56,18.95,23.74
			c9.46,7.14,21.07,10.7,32.8,11.53c13.01,0.92,26.15-1.39,38.66-4.84c11.62-3.2,23.11-7.29,33.95-12.56
			c10.46-5.08,20.42-11.52,28.62-19.82c8.41-8.51,14.62-18.91,18-30.39c6.73-22.9,2.34-48.07-10.79-67.86
			c-13-19.6-33.86-34.65-56.66-40.57c-6.56-1.7-13.44-2.58-20.22-2.1c-6.49,0.46-12.79,2.1-18.78,4.61
			c-11.41,4.78-21.77,12.24-30.53,20.94c-16.33,16.22-28.08,38.4-28.16,61.79c-0.04,10.87,2.56,21.49,8.02,30.91
			c5.12,8.83,12.4,16.42,20.95,21.99c8.41,5.48,18.27,8.96,28.35,9.23c10.35,0.28,20.58-3.11,28.82-9.36
			c17.63-13.35,26.79-37.77,23.01-59.5c-1.92-11.04-8.8-20.2-19.46-24.01c-9.53-3.41-20.28-2.32-29.95-0.15
			c-10.24,2.3-20.39,6.03-29.75,10.76c-8.94,4.52-18.1,10.91-21.6,20.73c-4.25,11.9,2.83,24.19,9.6,33.64
			c6.75,9.43,15.44,17.78,26.22,22.38c9.99,4.26,21.54,4.93,31.67,0.7c4.81-2.01,9.12-5.08,12.33-9.21
			c2.99-3.84,4.62-8.38,5.11-13.2c0.91-8.99-2.81-18.98-10.76-23.79c-8.37-5.06-18.61-1.92-24.52,5.4
			c-2.67,3.31-4.52,7.28-4.71,11.58c-0.09,2.06,0.28,4.13,1.07,6.03c0.39,0.94,0.84,1.84,1.43,2.68c1.16,1.65,2.45,1.58,4.27,1.28
			c10.1-1.66,18-11.19,18.22-21.32c0.07-3.22-4.93-3.22-5,0c-0.17,8.13-6.96,15.75-15.13,16.56c0.72,0.41,1.44,0.83,2.16,1.24
			c-4.8-6.61-0.11-15.16,6.22-18.94c3.39-2.02,7.36-2.75,11.12-1.35c3.59,1.34,6.37,4.15,8.18,7.47c3.81,7,3.49,16.37-1.23,22.86
			c-5.76,7.9-16.12,11.01-25.54,10.54c-10.46-0.52-20.07-5.85-27.59-12.89c-3.98-3.72-7.47-7.92-10.52-12.43
			c-3.29-4.86-6.5-10.12-8.08-15.82c-1.34-4.84-1.04-9.92,1.33-14.39c2.11-3.98,5.4-7.24,9.01-9.87
			c7.91-5.76,17.29-9.54,26.51-12.63c15.96-5.34,40.7-10.48,51.05,7.28c5.46,9.38,4.93,21.83,2.53,32.07
			c-2.31,9.84-6.94,19.25-13.88,26.66c-6.67,7.12-15.4,12.19-25.11,13.63c-8.93,1.33-18.23-0.57-26.3-4.47
			c-17.11-8.27-30.27-25.11-32.58-44.15c-2.66-21.89,6.34-43.62,20.39-60.09c7.36-8.63,16.12-16.07,25.93-21.77
			c10.84-6.3,22.79-9.76,35.38-8.43c11.89,1.26,23.44,6.09,33.6,12.25c9.21,5.59,17.48,12.69,24.31,21.03
			c14,17.08,20.83,39.62,17.3,61.57c-1.79,11.12-6.09,21.74-12.96,30.71c-6.65,8.69-15.39,15.59-24.8,21.08
			c-9.71,5.67-20.17,9.91-30.83,13.43c-11.58,3.83-23.55,6.98-35.75,7.84c-11.81,0.84-23.99-0.51-34.66-5.95
			c-8.38-4.27-15.37-10.88-20.48-18.76c-10.49-16.2-13.4-36.92-8.06-55.43c5.9-20.46,20.39-37.59,37.76-49.48
			c9.41-6.44,19.78-11.69,30.75-14.89c11.54-3.36,24.04-4.38,35.55-0.35c10.44,3.65,18.96,11.49,25.35,20.34
			c6.96,9.63,12.02,20.61,15.64,31.89c7.57,23.59,8.98,48.73,8.21,73.34c-0.75,23.88-4.38,49.5-19.81,68.72
			c-6.51,8.11-14.86,15.07-24.62,18.87c-10.44,4.06-21.75,4.22-32.49,1.28c-11.42-3.12-21.8-9.25-31.33-16.15
			c-9.59-6.95-18.47-14.88-27.11-22.96c-16.44-15.37-32.5-32.96-39.59-54.79c-3.65-11.26-5.13-23.82-1.03-35.17
			c3.78-10.45,12.73-18.25,22.06-23.79c15.72-9.33,34.66-12.35,52.66-9.91c17.86,2.42,35.24,10.18,48.27,22.74
			c6.96,6.71,13.49,15.12,16.16,24.55c1.49,5.24,1.55,10.91-1.55,15.6c-3.05,4.6-8.43,7.39-13.34,9.58
			c-21.89,9.74-47.93,5.67-68.92-4.42c-22.3-10.73-41.17-27.68-58.84-44.71c-8.1-7.81-16.21-16.5-20.16-27.24
			c-4.39-11.96-2.67-24.96,1.88-36.61c7.46-19.1,23.11-34.28,41.39-43.13c18.87-9.14,40.39-11.01,60.58-5.41
			c20.51,5.69,38.81,18.33,51.99,34.97c15.09,19.06,22.39,43.73,24.42,67.69c1.03,12.15,0.43,24.65-4.11,36.1
			c-4,10.07-11.39,18.51-20.26,24.62c-16.96,11.69-38.26,15.71-58.52,13.27c-19.38-2.34-38.18-10.71-53.08-23.29
			c-15.71-13.27-28.6-32.44-30.9-53.26c-1.28-11.63,1.42-23.04,9.02-32.1c7.06-8.41,16.61-14.29,26.32-19.18
			c22.83-11.48,48.22-19.56,73.96-19.52c22.02,0.04,44.54,6.61,61.81,20.6c8.4,6.8,15.4,15.21,20.16,24.93
			c4.73,9.66,7.16,20.42,7.45,31.15c0.59,21.84-7.57,43.29-23.03,58.8c-14.99,15.03-35.65,24.26-56.77,25.97
			c-21.74,1.76-43.39-4.66-61.49-16.62c-9.1-6.02-17.26-13.45-24.16-21.91c-7.5-9.2-13.68-19.85-16.79-31.36
			c-2.88-10.65-2.69-21.76,1.08-32.15c3.29-9.06,9.14-17.01,15.97-23.73c15.18-14.92,34.9-24.25,54.63-31.55
			c12.75-4.71,25.75-8.74,38.93-12.06c6.5-1.64,13.06-3.25,19.68-4.32c6.3-1.01,12.89-1.23,18.97,0.96
			c5.35,1.93,9.84,5.75,13.76,9.77c4.13,4.24,7.92,8.86,11.46,13.61c7.23,9.7,13.41,20.18,18.41,31.19
			c5.07,11.17,9.03,23.03,11.24,35.11c2.29,12.5,2.3,25.68-2.53,37.61c-8.09,19.95-27.6,32.57-45.58,42.7
			c-21.4,12.05-45.15,24.89-70.51,23.36c-19.87-1.2-37.83-12.52-49.98-27.89c-6.14-7.76-10.84-16.77-13.67-26.25
			c-2.98-9.94-3.72-20.33-2.55-30.62c2.4-21.11,13.06-40.93,27.9-55.91c16.08-16.24,37.16-26.23,59.54-30.26
			c23.34-4.2,47.81-1.99,70.33,5.22c10.79,3.45,21.48,8.31,29.93,16c8.19,7.45,13.46,17.26,15.77,28.05
			c4.77,22.24-3.46,44.68-17.47,61.92c-13.27,16.33-30.89,28.96-50.09,37.4c-18.06,7.94-37.77,12.12-57.46,12.77
			c-19.94,0.65-39.94-2.3-58.79-8.85c-18.68-6.5-36.16-16.66-50.65-30.17c-17.99-16.77-31.6-37.68-42.65-59.51
			c-5.8-11.46-10.85-23.38-13.78-35.92c-1.41-6.03-2.56-12.32-2.2-18.54c0.35-5.98,2.75-11.05,6.98-15.24
			c4.09-4.05,9.01-7.33,13.84-10.44c4.94-3.19,10.07-6.09,15.34-8.71c10.58-5.27,21.72-9.35,33.11-12.48
			c23.03-6.32,46.99-8.72,70.83-8.69c20.51,0.03,41.11,2.22,60.87,7.85c18.86,5.38,37.18,14.08,51.5,27.71
			c7.42,7.05,13.57,15.29,18.18,24.44c5.21,10.35,8.3,21.7,9.86,33.15c3.22,23.75,0.29,48.01-3.4,71.53
			c-3.65,23.21-8.61,47.63-23.31,66.65c-13.66,17.68-34.18,28.55-55.19,35.02c-11.16,3.43-22.75,6-34.39,7.01
			c-11.91,1.04-24.23,0.36-35.4-4.24c-21.35-8.8-32.84-30.73-42.33-50.41c-11.83-24.53-22-49.82-31.63-75.28
			c-4.81-12.71-9.56-25.45-14.18-38.23c-4.4-12.16-8.2-24.7-6.75-37.78c1.32-11.93,6.53-23.2,13.18-33.07
			c5.95-8.83,13.27-16.73,21.44-23.55c15.91-13.29,35.28-22.31,55.54-26.51c18.64-3.87,38.15-3.48,56.52,1.6
			C768.91,514.57,770.23,509.75,767.13,508.89L767.13,508.89z"/>
	</g>
</g>
<g>
	<g>
		<path class="st0" d="M472.25,500.07c26.99,3.93,49.85-17.67,56.77-42.4c6.14-21.94,1.28-47.11-14.55-63.87
			c-15.39-16.29-39.99-21.67-61.34-16.23c-21.29,5.42-38.24,22.36-41.8,44.3c-3.83,23.63,5.46,49.59,26.89,61.82
			c1.93-4.57,3.85-9.14,5.78-13.71c-37.88-13.92-78.26-21.17-118.62-21.45c-11.4-0.08-22.79,0.43-34.14,1.48
			c2.16,3.76,4.32,7.52,6.48,11.29c9.49-20.49,15.55-43.6,9.63-66.02c-5.31-20.12-19.9-36.76-40.37-42.05
			c-19.55-5.06-42.39-1.03-59.74,9.08c-8.47,4.93-16.17,12.09-20.24,21.13c-4.48,9.95-4.97,20.95-2.3,31.49
			c6.16,24.29,26.84,39.66,46.23,53.38c1.26-4.66,2.52-9.32,3.79-13.98c-30.79-3.27-60.61,10.05-84.09,29.06
			c-11.58,9.37-21.8,20.31-31.22,31.83c-9.64,11.78-19.26,24.01-26.79,37.28c-8.72,15.36-14.15,32.68-10.23,50.35
			c4.57-1.93,9.14-3.85,13.71-5.78c-6.51-8.6-7.44-18.74-8.29-29.2c-0.89-10.95-2.01-21.5-6.57-31.62
			c-4.17-9.24-11.7-17.44-21.8-20.01c-12.46-3.18-25.03,2.41-34.33,10.49C10.54,539.4,4.28,560.06,5.94,578.92
			c0.88,10.03,3.58,19.76,8.42,28.62c5.17,9.47,12.79,17.39,21.36,23.84c19.53,14.69,45.25,20.53,69.38,19.11
			c7.4-0.43,10.23-9.89,3.79-13.98c-10.73-6.81-25.02-2.1-32.42,7.4c-8.31,10.66-8.21,25.07-6.83,37.87
			c2.85,26.42,12.23,51.33,24.35,74.83c5.99,11.61,12.63,22.88,19.5,33.99c6.9,11.17,13.74,22.49,21.39,33.17
			c8.08,11.28,17.34,20.99,28.97,28.64c10.86,7.15,22.82,12.46,34.57,17.94c49.52,23.08,102.22,45.44,157.97,43.61
			c51.07-1.68,99.93-22.99,138.98-55.36c38.39-31.84,67-74.56,86.4-120.22c2.55-5.99,4.98-12.03,7.25-18.14
			c1.42-3.8-1.58-8.22-5.24-9.23c-4.2-1.15-7.81,1.43-9.23,5.24c-16.26,43.61-40.78,85.08-74.33,117.8
			c-33.51,32.68-76.24,55.9-122.77,63.03c-23.62,3.62-48.98,2.05-72.78-3.16c-24.99-5.48-49.11-14.46-72.52-24.66
			c-12.14-5.29-24.16-10.86-36.13-16.53c-10.65-5.04-21.61-10.31-30.84-17.73c-9.54-7.67-16.74-17.47-23.37-27.65
			c-6.83-10.49-13.51-21.11-19.97-31.84c-12.61-20.94-24.3-42.66-31.36-66.14c-3.48-11.56-5.86-23.27-6.45-35.18
			c-0.29-5.79-0.2-10.74,1.58-16.07c0.44-1.31,0.61-1.64,1.2-2.73c0.36-0.66,0.76-1.3,1.16-1.94c0.1-0.16,0.86-1.08,0.17-0.25
			c1.9-2.26,2.54-2.57,4.92-3.88c2-1.1-0.64,0.17,0.6-0.27c0.58-0.2,1.16-0.39,1.76-0.54c0.47-0.12,0.95-0.23,1.42-0.3
			c-1.32,0.19-0.09,0.04,0.15,0.05c0.59,0.03,1.18-0.01,1.78,0.04c1.14,0.11-1.42-0.59,0.44,0.14c0.44,0.17,0.91,0.25,1.35,0.44
			c-1.4-0.61,0.68,0.52,0.76,0.58c1.26-4.66,2.52-9.32,3.79-13.98c-18.91,1.11-37.5-2.27-53.68-11.66
			c-7.62-4.42-14.8-10.44-19.79-17.1c-2.49-3.32-4.47-6.91-6.27-10.64c-1-2.07,0.27,0.73-0.24-0.54c-0.18-0.45-0.36-0.9-0.53-1.35
			c-0.39-1.02-0.74-2.04-1.08-3.08c-0.66-2.07-1.22-4.18-1.67-6.31c-0.2-0.95-0.38-1.9-0.54-2.85c-0.08-0.48-0.16-0.96-0.22-1.44
			c0.18,1.31,0.02,0.07-0.01-0.17c-0.2-2.17-0.37-4.33-0.39-6.51c-0.02-2.04,0.05-4.09,0.23-6.13c0.04-0.46,0.39-3.3,0.19-1.93
			c0.18-1.18,0.38-2.35,0.63-3.52c0.39-1.85,0.86-3.69,1.42-5.5c0.28-0.9,0.58-1.79,0.91-2.67c0.16-0.44,0.33-0.88,0.5-1.32
			c0.62-1.62-0.35,0.63,0.35-0.79c0.88-1.78,1.75-3.55,2.79-5.25c0.54-0.89,1.12-1.77,1.72-2.63c0.27-0.38,0.54-0.76,0.82-1.13
			c-0.63,0.84,0.03-0.04,0.34-0.4c1.28-1.52,2.63-2.98,4.09-4.33c0.69-0.64,1.41-1.25,2.14-1.86c1.13-0.94,0.43-0.33,0.17-0.14
			c0.63-0.46,1.27-0.91,1.93-1.34c4.08-2.68,8.46-4.57,12.9-4.62c2.15-0.03,3.44,0.24,5.7,1.02c-1.29-0.45,1.07,0.53,1.37,0.7
			c0.4,0.23,0.79,0.46,1.18,0.71c0.12,0.08,1.8,1.39,0.7,0.46c1.42,1.19,2.75,2.53,3.88,4.01c-0.78-1.02,0.14,0.24,0.3,0.5
			c0.26,0.41,0.53,0.8,0.78,1.21c0.58,0.93,1.11,1.89,1.61,2.87c0.28,0.55,0.54,1.11,0.8,1.67c0.21,0.48,0.21,0.45-0.01-0.08
			c0.09,0.23,0.19,0.47,0.28,0.7c0.45,1.18,0.88,2.36,1.25,3.57c0.76,2.41,1.35,4.87,1.82,7.36c0.09,0.49,0.18,0.98,0.26,1.48
			c0.01,0.07,0.32,2.43,0.15,0.94c0.15,1.26,0.27,2.52,0.39,3.78c0.27,2.95,0.48,5.9,0.74,8.86c1.03,12,2.67,24.65,10.15,34.55
			c2.25,2.98,5.67,4.69,9.37,3.07c3.51-1.54,5.17-5.11,4.34-8.85c-2.76-12.43,1.36-25.25,7.52-36.63
			c6.59-12.18,15.13-23.36,23.8-34.13c16.93-21.04,36.72-40.81,61.84-51.61c14.26-6.13,29.31-8.79,44.71-7.15
			c3.22,0.34,6.43-2.57,7.23-5.51c0.93-3.39-0.71-6.53-3.45-8.47c-14.27-10.1-29.7-20.91-36.99-37.37
			c-2.97-6.71-4.43-15.31-2.95-22.15c0.89-4.14,2.2-7.09,4.7-10.66c1.33-1.89,5.07-5.55,6.96-6.93c6.89-5.04,13.73-7.74,21.86-9.82
			c8.4-2.14,16.98-3.12,25.9-1.81c6.98,1.03,15.3,4.27,20.63,8.89c5.86,5.08,10.16,11.65,12.63,18.48
			c3.51,9.68,4.25,18.65,2.94,29.06c-1.33,10.61-4.94,21.01-9.42,30.67c-2.14,4.62,0.27,11.86,6.48,11.29
			c39.11-3.61,78.64-0.53,116.66,9.36c10.86,2.83,21.57,6.2,32.11,10.07c3.46,1.27,7.56-1.14,8.85-4.34
			c1.37-3.4,0.24-7.48-3.07-9.37c-1-0.57-1.99-1.17-2.95-1.81c-0.38-0.25-2.31-1.7-1.25-0.86c-1.78-1.41-3.44-2.98-4.98-4.65
			c-0.77-0.83-1.51-1.7-2.21-2.59c0.84,1.08-0.59-0.85-0.84-1.23c-1.28-1.88-2.44-3.86-3.45-5.9c-0.2-0.41-0.4-0.82-0.6-1.24
			c0.04,0.08-0.86-1.97-0.45-0.99c0.41,0.98-0.42-1.11-0.39-1.02c-0.16-0.43-0.32-0.86-0.47-1.3c-0.76-2.18-1.38-4.4-1.86-6.65
			c-0.19-0.9-0.34-1.82-0.51-2.72c-0.42-2.22,0.11,1.5-0.11-0.75c-0.05-0.46-0.1-0.92-0.14-1.38c-0.2-2.3-0.27-4.61-0.19-6.92
			c0.03-0.92,0.09-1.84,0.16-2.76c0.05-0.57,0.11-1.15,0.17-1.72c0.15-1.33-0.34,1.77,0.06-0.4c0.4-2.15,0.83-4.27,1.45-6.37
			c0.29-0.99,0.61-1.97,0.96-2.93c0.16-0.43,0.32-0.86,0.49-1.28c0.78-2.04-0.37,0.77,0.19-0.42c0.98-2.08,2.05-4.09,3.31-6.02
			c0.57-0.87,1.15-1.73,1.79-2.54c-0.77,0.99-0.02,0.05,0.13-0.11c0.41-0.45,0.79-0.92,1.2-1.37c1.54-1.7,3.22-3.24,4.98-4.72
			c1.75-1.47-0.62,0.43,0.47-0.37c0.48-0.35,0.97-0.7,1.47-1.04c0.79-0.54,1.6-1.05,2.42-1.54c1.03-0.61,2.08-1.19,3.15-1.73
			c0.43-0.22,0.86-0.43,1.29-0.63c0.24-0.11,2.03-0.88,0.84-0.4c4.23-1.73,8.72-2.93,13.24-3.56c-1.31,0.18-0.07,0.02,0.17,0
			c0.6-0.05,1.21-0.12,1.81-0.16c1.09-0.08,2.18-0.14,3.27-0.16c2.43-0.05,4.86,0.04,7.27,0.29c0.48,0.05,0.97,0.1,1.45,0.16
			c-1.38-0.18,0.19,0.04,0.53,0.1c1.07,0.2,2.14,0.39,3.21,0.63c2.36,0.54,4.68,1.22,6.95,2.05c0.41,0.15,2.71,1.12,1.56,0.6
			c1.1,0.49,2.19,1.02,3.25,1.58c2.03,1.08,3.96,2.3,5.84,3.62c0.25,0.17,1.47,1.13,0.5,0.36c0.38,0.3,0.75,0.61,1.12,0.93
			c0.93,0.79,1.84,1.63,2.7,2.49c0.72,0.71,1.41,1.45,2.09,2.2c0.42,0.47,0.83,0.95,1.23,1.44c0.24,0.29,0.48,0.58,0.71,0.88
			c-0.33-0.42-0.34-0.43-0.04-0.02c1.32,1.83,2.54,3.73,3.63,5.71c0.54,0.99,1.06,1.99,1.54,3.01c0.21,0.45,0.42,0.91,0.62,1.37
			c-0.51-1.17,0.3,0.76,0.38,0.99c0.8,2.12,1.48,4.28,2.03,6.48c0.31,1.22,0.58,2.46,0.81,3.69c0.09,0.5,0.17,1,0.26,1.49
			c0.32,1.73-0.02-0.59,0.14,1.01c0.48,4.81,0.5,9.6-0.02,14.41c-0.17,1.55-0.09,0.6-0.03,0.27c-0.12,0.75-0.24,1.5-0.38,2.25
			c-0.26,1.37-0.57,2.73-0.92,4.07c-0.67,2.56-1.49,5.1-2.51,7.55c0.46-1.1-0.18,0.38-0.3,0.64c-0.32,0.69-0.65,1.37-0.99,2.04
			c-0.63,1.23-1.31,2.45-2.03,3.63c-0.66,1.08-1.35,2.13-2.08,3.16c-0.29,0.41-0.59,0.82-0.9,1.22c0.73-0.95-0.58,0.68-0.73,0.85
			c-4.09,4.8-8.42,8.33-14.04,11.11c-2.04,1.01-4.99,1.99-7.73,2.54c-1.99,0.4-5.46,0.54-7.29,0.28c-4-0.58-8.06,0.99-9.23,5.24
			C466.04,494.37,468.22,499.49,472.25,500.07L472.25,500.07z"/>
	</g>
</g>
<g>
	<g>
		<path class="st0" d="M570.82,563.61c-7.33-14.58-17.16-28-28.67-39.57c-11.51-11.56-24.88-21.47-39.37-28.98
			c-8.36-4.33-17.14-7.95-26.13-10.72c-3.75-1.15-8.34,1.37-9.23,5.24c-0.93,4.06,1.22,7.99,5.24,9.23
			c4.74,1.46,9.41,3.16,13.98,5.09c-0.6-0.25-1.19-0.5-1.79-0.76c6.27,2.66,12.35,5.74,18.19,9.23c2.95,1.76,5.84,3.62,8.67,5.58
			c1.41,0.98,2.81,1.98,4.19,3.01c0.31,0.23,0.61,0.46,0.92,0.69c0.25,0.19,1.55,1.19,0.45,0.34c-1.04-0.81,0.06,0.05,0.3,0.23
			c0.35,0.28,0.7,0.55,1.05,0.83c5.37,4.29,10.45,8.94,15.19,13.92c2.33,2.44,4.57,4.96,6.73,7.55c0.53,0.64,1.05,1.27,1.57,1.92
			c0.28,0.35,0.56,0.69,0.83,1.04c0.15,0.18,0.61,1.01,0.82,1.05c0.05,0.01-1.03-1.34-0.59-0.76c0.15,0.2,0.31,0.4,0.46,0.61
			c0.23,0.3,0.46,0.61,0.69,0.91c0.53,0.71,1.06,1.43,1.58,2.15c4.5,6.25,8.49,12.85,11.95,19.73c1.77,3.51,7,4.79,10.26,2.69
			C571.72,571.56,572.71,567.37,570.82,563.61L570.82,563.61z"/>
	</g>
</g>
<g>
	<g>
		<path class="st0" d="M454.92,497.81c-13.12-3.67-28.25,1.44-36.73,12.06c-2.77,3.46-4.85,7.12-6.21,11.37
			c-1.19,3.74,1.4,8.35,5.24,9.23c4.1,0.93,7.95-1.23,9.23-5.24c0.24-0.75,0.51-1.48,0.81-2.2c-0.25,0.6-0.5,1.19-0.76,1.79
			c0.7-1.64,1.56-3.19,2.58-4.65c0.37-0.52,1.49-1.69-0.18,0.18c0.29-0.33,0.56-0.69,0.86-1.02c0.55-0.63,1.13-1.23,1.74-1.8
			c0.61-0.58,1.27-1.09,1.89-1.65c-1.86,1.67-0.7,0.53-0.18,0.16c0.36-0.26,0.74-0.51,1.11-0.75c1.51-0.97,3.1-1.8,4.75-2.49
			c-0.6,0.25-1.19,0.5-1.79,0.76c2.38-0.98,4.86-1.65,7.41-1.99c-0.66,0.09-1.33,0.18-1.99,0.27c2.21-0.27,4.43-0.28,6.64-0.02
			c-0.66-0.09-1.33-0.18-1.99-0.27c1.22,0.16,2.42,0.41,3.6,0.74c3.78,1.06,8.33-1.3,9.23-5.24
			C461.07,503.06,458.97,498.94,454.92,497.81L454.92,497.81z"/>
	</g>
</g>
<g>
	<g>
		<path class="st0" d="M370.6,513.34c0.49-0.25,0.98-0.48,1.48-0.69c-0.6,0.25-1.19,0.5-1.79,0.76c1.39-0.55,2.82-0.93,4.3-1.15
			c-0.66,0.09-1.33,0.18-1.99,0.27c2.05-0.27,4.08-0.24,6.13,0.03c-0.66-0.09-1.33-0.18-1.99-0.27c2.34,0.34,4.6,0.99,6.78,1.88
			c-0.6-0.25-1.19-0.5-1.79-0.76c1.58,0.68,3.11,1.47,4.58,2.37c0.74,0.45,1.47,0.93,2.19,1.43c0.36,0.25,0.71,0.5,1.07,0.76
			c0.23,0.17,0.47,0.35,0.7,0.52c-0.88-0.69-1.1-0.85-0.65-0.51c2.8,2.24,5.45,4.65,8.07,7.09c2.87,2.67,7.8,3.06,10.61,0
			c2.67-2.91,3.07-7.75,0-10.61c-5.74-5.34-11.72-10.86-18.99-14.01c-8.48-3.67-17.85-4.39-26.26-0.06c-3.5,1.8-4.8,6.98-2.69,10.26
			C362.63,514.21,366.86,515.26,370.6,513.34L370.6,513.34z"/>
	</g>
</g>
<g>
	<g>
		<path class="st0" d="M489.63,544.61c-30.04-14.03-64.14-16.69-96.5-10.44c-30.78,5.94-60.66,19.9-84.05,40.92
			c-11.05,9.94-20.65,21.68-27.53,34.89c-7.8,14.98-11.77,31.52-13.11,48.28c-1.38,17.14-0.1,34.39,1.95,51.43
			c1.05,8.72,2.31,17.41,3.59,26.1c1.19,8.06,2.45,16.12,4.16,24.09c3.4,15.83,8.73,31.64,18.62,44.66
			c9.14,12.05,21.5,21.26,35.15,27.63c32.2,15.04,68.36,13.9,103,11.69c17.72-1.14,35.82-1.94,52.93-7.13
			c14.38-4.36,27.34-12.15,38.09-22.64c22.12-21.61,33.57-51.67,36.91-81.96c2.02-18.31,1.27-36.82-0.73-55.1
			c-1.8-16.49-4.33-32.98-7.78-49.21c-5.67-26.69-14.53-54.14-32.54-75.21c-9.03-10.56-20.38-18.87-33.29-24.03
			c-15.18-6.07-31.87-7.33-48.05-6.05c-16.81,1.32-33.31,5.17-49.53,9.62c-16.16,4.44-32.66,8.99-47.41,17.15
			c-27.9,15.44-43.06,44.15-55.73,72.16c-7.24,16.01-14.78,32.26-18.4,49.55c-1.78,8.49-2.6,17.25-1.65,25.9
			c0.93,8.5,3.52,16.57,7.43,24.17c3.9,7.57,8.92,14.49,14.14,21.18c5.62,7.21,11.47,14.24,17.35,21.24
			c6.05,7.2,12.19,14.34,18.35,21.45c5.77,6.65,11.37,13.53,17.59,19.77c5.62,5.64,11.99,10.62,19.52,13.41
			c8.23,3.05,17.26,3.14,25.91,2.66c18.43-1.04,36.83-3.57,54.9-7.29c17.52-3.61,34.85-8.37,51.66-14.48
			c15.85-5.76,31.34-12.88,45.24-22.49c25.52-17.63,46.16-44.91,48.05-76.77c1.97-33.1-16.44-63.89-40.14-85.55
			c-12.41-11.34-26.41-20.81-40.85-29.36c-14.59-8.64-29.71-17.51-46.02-22.44c-17.3-5.23-35.28-4.02-52.47,1
			c-16.65,4.87-32.65,12.56-47.45,21.54c-14.33,8.7-28.18,18.94-39.94,30.91c-5.59,5.69-10.7,11.99-14.53,19.01
			c-4.18,7.66-6.51,16.01-7.53,24.64c-1.02,8.67-0.73,17.42-0.19,26.11c0.51,8.2,1.1,16.4,1.93,24.57
			c1.62,16.15,4.32,32.36,10.76,47.36c5.73,13.33,14.64,24.91,26.14,33.76c10.8,8.31,23.44,14.01,36.53,17.66
			c27.72,7.73,57.34,6.83,85.42,1.65c30.25-5.59,59.89-17.06,84.07-36.39c23.04-18.41,39.54-44.11,45.23-73.19
			c2.75-14.07,2.96-28.65-0.04-42.7c-3.05-14.28-9.6-27.47-18.89-38.71c-9.71-11.76-22.11-21.11-35.3-28.63
			c-13.24-7.55-27.46-13.52-41.93-18.29c-27.99-9.21-58.04-13.83-87.49-11.16c-28.78,2.61-56.86,12.59-78.81,31.77
			c-11.82,10.32-21.71,23.42-26.32,38.57c-4.93,16.23-3.2,33.6,1.79,49.6c4.99,15.99,12.88,31.13,21.76,45.29
			c7.8,12.44,16.84,24.38,27.89,34.13c10.72,9.45,23.57,16.86,37.84,19.1c16.69,2.62,33.2-1.86,48.09-9.31
			c15.06-7.53,28.94-17.79,41.46-29c12.42-11.13,23.69-23.7,33.16-37.44c9.26-13.44,16.69-28.83,17.67-45.36
			c0.88-14.82-3.6-30.57-14.56-41.01c-11.32-10.78-27.21-14.76-42.07-17.84c-13.8-2.86-27.94-4.65-42.05-4.33
			c-13.42,0.31-26.98,2.59-39.15,8.45c-12.4,5.97-22.67,16.01-28.57,28.48c-6.32,13.36-7.71,28.44-6.44,43.02
			c1.31,15.06,5.13,29.85,10.16,44.07c4.74,13.42,10.78,26.81,20.29,37.57c9.69,10.97,23.05,17.74,37.83,17.74
			c16.04,0,31.63-6.99,44.41-16.27c12.26-8.9,22.83-19.99,31.35-32.49c8.56-12.56,15.01-26.64,18.88-41.34
			c3.91-14.84,5.83-31.08,2.36-46.2c-1.75-7.63-5.12-14.86-10.25-20.81c-4.79-5.55-11.03-9.78-17.71-12.72
			c-14.38-6.33-30.73-7.66-46.24-6.18c-32.92,3.13-63.54,19.13-88.89,39.75c-12.21,9.93-23.2,21.6-31.71,34.87
			c-8.25,12.86-14.14,27.62-14.68,43.03c-0.53,14.9,4.38,29.43,13.28,41.33c8.84,11.82,20.74,21.1,33.69,28.05
			c29.19,15.67,63.7,20.81,96.31,15.64c29.38-4.66,60.15-18.18,77.39-43.46c9.32-13.66,12.92-30.08,12.16-46.46
			c-0.81-17.57-5.85-34.67-11.58-51.19c-10.62-30.64-24.35-63.23-53.68-80.35c-6.49-3.79-13.6-6.67-20.99-8.13
			c-8.28-1.64-16.72-1.53-25.02-0.11c-17.05,2.91-32.83,11.19-47.19,20.54c-13.88,9.04-26.85,19.54-38.58,31.24
			c-11.78,11.75-22.68,24.76-31.31,39.02c-8.43,13.94-14.56,29.54-15.53,45.92c-0.87,14.62,2.55,29.28,8.92,42.41
			c6.43,13.25,16.02,25.05,27.65,34.08c12.34,9.58,26.93,16.02,42.18,19.3c31.53,6.77,64.36,0.38,92.43-14.97
			c13.89-7.59,26.65-17.25,38.09-28.18c11.63-11.12,22.29-23.61,30.68-37.37c8.38-13.73,14.42-29.16,15.26-45.35
			c0.91-17.39-4.54-34.31-11.89-49.86c-3.6-7.62-7.67-15.01-11.95-22.27c-3.92-6.65-8.13-13.14-13-19.15
			c-4.88-6.02-10.5-11.47-17.02-15.7c-6.7-4.35-14.32-7.18-22.17-8.55c-16.41-2.87-33.18-0.17-49.32,3.1
			c-13.93,2.83-27.83,5.97-41.44,10.09c-25.51,7.72-51.78,19.36-68.8,40.71c-9.5,11.93-15.36,26.03-17.25,41.17
			c-1.99,15.98,0.46,32.52,6.17,47.53c11.39,29.95,35.25,53.24,61.49,70.66c14.07,9.34,29.57,17.73,46.42,20.47
			c16.52,2.68,32.82-0.93,47.47-8.78c13.9-7.45,26.26-18.15,36.3-30.26c9.95-12.01,17.85-25.91,21.69-41.1
			c8.26-32.65-4.7-66.11-24.45-91.99c-9.28-12.16-20.44-23.77-34.69-29.97c-14.16-6.16-29.85-5.87-44.17-0.34
			c-14.71,5.69-27.49,15.65-38.31,26.99c-11.11,11.64-21.03,25.2-27.88,39.79c-6.64,14.14-10.24,30.3-6.07,45.7
			c3.15,11.63,10.49,21.84,19.85,29.32c9.75,7.79,21.53,13.04,33.87,14.98c12.71,2,25.37,0.49,37.17-4.67
			c25.59-11.2,42.8-36.71,48.89-63.37c3.03-13.24,4.06-27.98,0.07-41.14c-1.93-6.37-5.25-12.6-10.48-16.86
			c-6.36-5.19-14.38-6.88-22.44-6.62c-8.18,0.27-16.37,2.02-24.37,3.64c-8.06,1.64-16.08,3.59-23.88,6.2
			c-15.13,5.06-29.84,12.72-40.62,24.72c-9.74,10.85-16.6,24.93-16.77,39.7c-0.18,15.44,7.73,29.43,19.06,39.51
			c22.76,20.22,57.85,26.03,85.3,12.19c25.13-12.67,41-42.48,35.49-70.38c-5.35-27.09-32.78-49.11-60.67-46.22
			c-26.65,2.76-49.09,29.31-45.78,56.28c1.79,14.66,10.86,27.34,22.3,36.24c12.08,9.39,29.55,18.07,44.9,11.73
			c13.64-5.63,20.81-20.4,25.66-33.45c2.91-7.82,3.89-16.24-0.55-23.68c-3.59-6.03-9.63-10.3-16.15-12.65
			c-8.08-2.91-17-2.33-25.28-0.65c-4.53,0.92-8.98,2.22-13.39,3.58c-3.65,1.12-7.34,2.27-10.73,4.07
			c-6.78,3.59-10.99,10.2-10.34,17.98c0.61,7.34,4.39,14.16,9.44,19.39c9.88,10.26,24.78,15.95,38.97,13.83
			c13.08-1.96,23.35-11.31,27.04-23.94c1.58-5.43,1.88-11.3,0.54-16.81c-0.64-2.62-1.68-5.2-3.1-7.5c-0.71-1.15-1.53-2.25-2.4-3.28
			c-0.69-0.82-1.38-1.57-2.54-1.6c-0.81-0.02-1.72,0.23-2.53,0.36c-13.49,2.29-25.68,11.05-32.41,22.92
			c-0.84,1.48-0.03,3.14,1.49,3.67c9.22,3.2,20.04,0.42,26.6-6.8c2.16-2.38-1.37-5.92-3.54-3.54c-5.45,6-14.09,8.17-21.74,5.51
			c0.5,1.22,1,2.45,1.49,3.67c6.3-11.13,17.88-19.16,30.62-20.81c-0.59-0.24-1.18-0.49-1.77-0.73c7.67,8.31,6.89,21.22,1.47,30.5
			c-2.87,4.91-7.04,8.82-12.22,11.18c-5.73,2.6-12.4,3.23-18.58,2.24c-12.76-2.04-26.25-10.49-30.67-23.15
			c-2.14-6.14-1.64-12.89,3.88-17.06c2.77-2.09,6.1-3.31,9.37-4.37c4.04-1.32,8.13-2.54,12.26-3.57c8.09-2.02,16.88-3.27,25.03-0.85
			c5.95,1.77,11.64,5.5,14.87,10.91c4.11,6.89,2.18,14.46-0.58,21.48c-2.51,6.35-5.47,12.64-9.53,18.16
			c-3.9,5.31-9.17,9.74-15.66,11.38c-7.56,1.9-15.63-0.15-22.55-3.33c-12.66-5.82-24.24-15.44-30.56-28.02
			c-5.76-11.46-5.7-24.67-0.32-36.27c5.13-11.06,14.34-20.47,25.69-25.13c24.82-10.17,53.1,5.62,63.71,28.82
			c11.12,24.31,0.12,54.21-20.47,69.78c-23.05,17.44-56.3,16.01-80.05,0.76c-11.91-7.64-22.17-19.19-25.19-33.32
			c-2.89-13.48,1.58-27.41,9.19-38.55c17.71-25.92,51.01-33.85,80.15-38.65c7.48-1.23,15.49-2.06,22.8,0.45
			c6.22,2.13,10.76,6.93,13.6,12.73c5.59,11.4,5.27,25.57,3.27,37.81c-4.15,25.42-18.37,50.23-41.15,63.21
			c-10.62,6.06-22.48,8.93-34.69,8.09c-11.48-0.79-22.74-4.69-32.35-10.98c-9.32-6.1-17.33-14.83-21.45-25.28
			c-5.2-13.18-3.71-27.58,1.18-40.62c5.47-14.6,14.78-28.08,24.95-39.8c9.73-11.21,21.11-21.33,34.41-28.09
			c12.62-6.42,27.1-9.14,40.92-5.19c14.12,4.04,25.5,14.19,34.76,25.21c19.62,23.34,34.45,54.73,29.51,85.87
			c-2.33,14.67-8.71,28.35-17.36,40.34c-8.69,12.03-19.77,22.68-32.19,30.8c-12.85,8.4-27.72,14.1-43.26,13.59
			c-16.16-0.54-31.38-7.34-45.05-15.54c-25.68-15.42-49.52-36.31-63.19-63.37c-13.53-26.81-15.56-60.47,0.81-86.52
			c13.7-21.8,37.38-34.58,61.04-42.86c12.68-4.44,25.71-7.78,38.81-10.69c14.79-3.29,29.84-6.69,45.06-6.9
			c7.68-0.11,15.36,0.68,22.7,3c7.16,2.26,13.72,6.07,19.36,11.01c11.09,9.72,18.78,22.66,25.89,35.41
			c8.04,14.4,15.3,29.61,18.04,46.01c2.58,15.4,0.01,30.96-6.28,45.16c-6.3,14.24-15.57,27.01-25.91,38.58
			c-9.94,11.13-21.06,21.26-33.32,29.79c-24.89,17.3-54.38,27.65-84.91,26.24c-29.37-1.36-58-14.01-75.98-37.77
			c-8.41-11.12-14.38-24.07-16.84-37.82c-2.59-14.42-0.61-29.04,4.6-42.67c5.65-14.77,14.78-28.09,24.83-40.19
			c10.11-12.17,21.45-23.32,33.78-33.25c12.57-10.11,26.29-19.32,40.98-26.04c14.42-6.59,30.75-10.6,46.55-7.33
			c14.27,2.95,26.89,11.14,36.91,21.52c10.96,11.35,18.69,25.37,24.86,39.78c3.2,7.47,5.97,15.12,8.65,22.8
			c2.81,8.08,5.44,16.23,7.53,24.53c3.96,15.74,6.09,32.5,2.25,48.49c-6.77,28.17-31.76,46.87-57.9,56.13
			c-29.94,10.61-63.16,11.11-93.5,1.82c-14.25-4.36-27.98-10.83-39.91-19.82c-10.75-8.1-20.26-18.7-25.35-31.29
			c-5.4-13.36-5.43-27.95-1.26-41.64c4.28-14.06,12.44-26.79,22.02-37.83c10.05-11.58,21.87-21.48,34.56-30.04
			c13.04-8.8,27.12-16.2,42.06-21.2c14.71-4.92,30.2-7.47,45.72-6.59c13.86,0.78,28.68,4.34,39.33,13.75
			c11.34,10.01,14.83,25.08,14.51,39.69c-0.31,14.45-3.76,28.9-9.17,42.26c-5.37,13.26-13.04,25.68-22.45,36.45
			c-9.65,11.04-21.2,20.75-34.43,27.21c-13.24,6.47-28.8,9.56-42.98,4.32c-12.32-4.55-21.32-14.84-27.73-25.95
			c-6.86-11.89-11.47-25.12-15.09-38.31c-3.8-13.83-6.27-28.22-5.45-42.61c0.77-13.55,4.93-27.05,13.84-37.5
			c8.1-9.51,19.09-15.67,31.06-18.93c12.6-3.43,25.86-3.89,38.83-2.96c13.59,0.97,27.23,3.41,40.35,7.1
			c7.08,1.99,14.04,4.59,20.21,8.66c5.96,3.93,10.69,9.3,13.89,15.68c6.48,12.91,6.24,28.18,2,41.72
			c-4.75,15.17-14.08,28.63-24.13,40.76c-10.15,12.25-21.66,23.41-34.25,33.12c-12.66,9.76-26.58,18.77-41.84,23.84
			c-14.34,4.76-29.43,5.26-43.63-0.22c-12.68-4.9-23.44-13.89-32.46-23.88c-9.57-10.62-17.42-22.7-24.35-35.17
			c-7.92-14.26-14.75-29.44-17.68-45.57c-2.8-15.39-1.22-31.27,6.13-45.21c13.15-24.93,39.27-41.73,65.7-49.64
			c26.64-7.98,55.28-8.01,82.52-3.2c13.88,2.45,27.53,6.16,40.77,10.97c13.72,4.99,27.13,11.09,39.5,18.86
			c12.08,7.59,23.27,16.99,31.66,28.61c8.04,11.14,13.15,23.96,15.23,37.53c4.1,26.8-3.63,54.96-18.49,77.35
			c-15.93,24-40.83,41.17-67.3,51.75c-26.45,10.57-55.59,15.95-84.08,15.47c-25.84-0.43-52.92-6.05-73.96-21.82
			c-10.85-8.13-19.22-18.99-24.76-31.33c-6.29-14.02-8.94-29.48-10.54-44.67c-0.82-7.75-1.37-15.53-1.9-23.3
			c-0.57-8.32-0.99-16.69-0.37-25.02c0.61-8.19,2.39-16.36,6.03-23.76c3.35-6.81,7.95-12.89,13.13-18.4
			c10.86-11.56,23.83-21.37,37.2-29.82c14.01-8.86,29.07-16.44,44.82-21.67c15.89-5.28,32.88-7.85,49.39-4
			c16.14,3.76,30.83,12.2,45.08,20.38c27.21,15.63,54.04,34.53,70.19,62.15c7.66,13.11,12.83,27.9,13.54,43.14
			c0.69,14.85-3.13,29.44-10.23,42.44c-14.99,27.45-41.91,45.28-70.28,56.79c-15.55,6.31-31.72,11.19-48.02,15.13
			c-17.18,4.15-34.65,7.13-52.24,8.86c-8.45,0.83-17.06,1.7-25.56,1.22c-8.03-0.45-15.43-2.75-22.03-7.4
			c-6.23-4.39-11.36-10.21-16.34-15.92c-5.93-6.8-11.84-13.61-17.72-20.46c-5.86-6.83-11.68-13.7-17.4-20.65
			c-5.29-6.42-10.6-12.85-15.42-19.63c-4.59-6.45-8.79-13.32-11.55-20.77c-2.88-7.78-4.06-15.98-3.77-24.25
			c0.6-16.9,6.76-33.18,13.37-48.54c6.02-13.97,12.22-27.98,19.69-41.24c7.07-12.53,15.52-24.39,26.52-33.77
			c12.23-10.42,27.27-16.45,42.45-21.15c15.22-4.71,30.7-8.99,46.38-11.92c15.34-2.87,31.32-4.38,46.84-2.03
			c14.06,2.13,27.55,7.48,38.71,16.39c9.95,7.94,17.82,18.1,23.97,29.19c13,23.43,18.82,50.23,23.07,76.45
			c5.54,34.21,9.24,70.09,0.43,104.1c-6.79,26.2-21.6,51.64-44.47,66.88c-13.04,8.68-28.01,12.96-43.41,15.06
			c-8.39,1.14-16.85,1.69-25.29,2.25c-8.97,0.59-17.93,1.17-26.91,1.49c-31.82,1.12-65.24-1.51-92.54-19.5
			c-12.23-8.06-22.02-18.98-28.48-32.14c-6.89-14.04-10.06-29.62-12.52-44.96c-2.57-16.01-4.92-32.12-6.29-48.28
			c-1.39-16.37-1.67-33.03,1.1-49.27c2.59-15.14,7.87-29.59,16.25-42.49c7.82-12.03,17.95-22.47,29.24-31.28
			c23.8-18.57,53.08-30.37,82.91-34.54c28.23-3.95,57.77-0.7,83.73,11.42c1.22,0.57,2.7,0.34,3.42-0.9
			C491.16,546.95,490.86,545.19,489.63,544.61L489.63,544.61z"/>
	</g>
</g>
<g>
	<g>
		<path class="st0" d="M163.46,634.96c-10.25-0.72-21.77-1.04-30.69,4.93c-7.63,5.11-13.19,14.7-9.79,23.94
			c3.54,9.6,13.41,14.39,22.97,15.77c5.62,0.81,11.3,0.89,16.96,1.09c5.94,0.21,11.89,0.41,17.83,0.55
			c23.54,0.57,47.19,0.23,70.48-3.55c9.72-1.58,20.83-4.22,25.7-13.8c2.19-4.31,2.51-9.19,0.53-13.63c-1.65-3.7-4.82-6.53-8.24-8.59
			c-3.66-2.21-7.77-3.69-11.87-4.83c-5.43-1.5-10.95-2.74-16.46-3.94c-11.49-2.5-23.08-4.49-34.74-6.03
			c-2.9-0.38-5.8-0.73-8.71-1.05c-1.34-0.15-2.5,1.26-2.5,2.5c0,1.48,1.15,2.35,2.5,2.5c10.92,1.21,21.78,2.86,32.57,4.94
			c5.34,1.03,10.66,2.17,15.96,3.41c4.63,1.08,9.32,2.1,13.81,3.66c6.09,2.1,13.88,6.1,14.04,13.34c0.09,4.1-2.32,7.74-5.34,10.32
			c-3.42,2.92-8.02,4.28-12.32,5.23c-10.38,2.28-21.15,3.27-31.74,3.95c-11.04,0.71-22.11,0.87-33.17,0.76
			c-11-0.12-21.99-0.51-32.97-0.91c-9.09-0.33-19.46-0.61-26.47-7.27c-2.78-2.65-4.8-6.14-4.85-10.06
			c-0.05-3.83,1.69-7.51,4.2-10.34c6.24-7.04,15.79-8.42,24.73-8.26c2.52,0.04,5.04,0.2,7.55,0.37c1.35,0.1,2.5-1.22,2.5-2.5
			C165.96,636.02,164.81,635.05,163.46,634.96L163.46,634.96z"/>
	</g>
</g>
<g>
	<g>
		<path class="st0" d="M142.09,738.86c-21.31-2.17-43.73,0.05-63.3,9.18c-9.4,4.38-18.07,10.55-24.89,18.4
			c-3.84,4.42-7.84,9.57-8.86,15.48c-0.85,4.93,0.42,9.71,3.49,13.64c5.88,7.51,16.49,10.74,25.68,11.11
			c6.76,0.28,13.64-0.69,20.28-1.85c7.04-1.22,14-2.86,20.98-4.42c28.45-6.37,56.91-12.74,85.36-19.12
			c28.53-6.39,57.07-12.78,85.6-19.17c3.5-0.78,6.99-1.57,10.49-2.35c1.88-0.42,2.36-2.89,1.1-4.18
			c-12.13-12.49-27.93-20.75-44.55-25.53c-18.81-5.4-38.57-6.26-58.02-5.33c-11.74,0.56-23.45,1.76-35.14,2.96
			c-1.34,0.14-2.5,1.05-2.5,2.5c0,1.24,1.15,2.64,2.5,2.5c20.39-2.09,40.91-4.19,61.43-2.89c17.25,1.1,34.58,4.83,50.04,12.75
			c8.4,4.3,16.12,9.79,22.7,16.57c0.37-1.39,0.74-2.79,1.1-4.18c-27.8,6.23-55.61,12.45-83.41,18.68
			c-27.64,6.19-55.28,12.38-82.92,18.57c-6.98,1.56-13.96,3.13-20.94,4.69c-6.6,1.48-13.22,2.94-19.92,3.87
			c-10.15,1.41-20.8,1.79-30-3.41c-3.37-1.9-6.61-4.74-7.88-8.14c-1.76-4.72-0.09-9.51,2.7-13.75c5.52-8.36,13.46-15.1,22.11-20.03
			c17.76-10.12,38.97-13.17,59.15-12.16c2.54,0.13,5.08,0.32,7.61,0.58c1.35,0.14,2.5-1.25,2.5-2.5
			C144.59,739.9,143.44,739,142.09,738.86L142.09,738.86z"/>
	</g>
</g>
<g>
	<g>
		<path class="st0" d="M158.21,636.71c-6.92,0.02-13.83,0.03-20.75,0.05c0,1.67,0,3.33,0,5c8.18-0.27,16.33-1.33,24.31-3.17
			c2.32-0.53,2.45-4.38,0-4.82c-12.24-2.22-24.99,1.31-34.29,9.59c-1.58,1.41-0.36,4.4,1.77,4.27c8.41-0.52,16.56-3.01,23.78-7.36
			c1.69-1.02,1.62-4.2-0.6-4.57c-10.85-1.81-21.81,4.42-25.79,14.68c-0.75,1.95,1.41,3.38,3.08,3.08c3.19-0.58,6.88-1.68,8.41-4.84
			c1.4-2.89,0.4-7.03-2.73-8.32c-4.03-1.66-6.72,2.25-8.05,5.44c-1.48,3.56-2.28,7.37-2.44,11.22c-0.19,4.4,0.53,8.87,2.09,12.99
			c1,2.64,4.68,2.22,4.91-0.66c0.57-7.09-4.15-13.81-10.8-16.08c-1.39-0.48-2.59,0.56-3.08,1.75c-1.49,3.6-0.19,7.58,2.13,10.49
			c2.47,3.09,6.32,4.66,10.13,5.31c4.41,0.76,8.95,0.83,13.41,1.11c4.69,0.3,9.38,0.59,14.06,0.89c5.35,0.34,10.69,0.68,16.04,1.02
			c0-1.67,0-3.33,0-5c-7.4-0.11-14.8-0.22-22.2-0.32c-3.7-0.05-7.42-0.24-11.11-0.16c-3.07,0.07-6.01,2.11-5.29,5.5
			c0.51,2.43,2.73,4.5,4.88,5.57c2.83,1.42,6.33,1.78,9.42,2.3c6.87,1.13,13.83,1.64,20.79,1.42c7.89-0.24,15.76-1.37,23.4-3.33
			c2.28-0.59,2.48-4.36,0-4.82c-11.22-2.09-22.86-0.25-32.84,5.32c-2.48,1.39-0.8,5.31,1.93,4.57c15.41-4.2,31.47-1,47.14-0.81
			c16.16,0.2,32.02-3.37,47.42-7.98c3.9-1.17,7.78-2.4,11.65-3.65c3.27-1.05,6.64-1.98,9.73-3.51c2.81-1.39,5.27-3.51,6.35-6.53
			c1.26-3.54-0.12-7.4-1.23-10.79c-2.11-6.45-5.17-12.99-11.23-16.59c-3.05-1.81-6.52-2.77-9.98-3.43
			c-3.94-0.76-7.91-1.35-11.86-2.01c-16.48-2.74-32.97-5.49-49.45-8.23c-2.04-0.34-4.08-0.68-6.12-1.02
			c-3.13-0.52-4.44,3.8-1.33,4.82c17.63,5.78,35.51,10.81,53.58,15.04c5.13,1.2,10.27,2.34,15.43,3.41c1.32,0.28,2.7-0.39,3.08-1.75
			c0.34-1.24-0.42-2.8-1.75-3.08c-18.17-3.79-36.17-8.35-53.94-13.71c-5.04-1.52-10.07-3.1-15.07-4.74
			c-0.44,1.61-0.89,3.21-1.33,4.82c15.99,2.66,31.99,5.32,47.98,7.98c3.92,0.65,7.83,1.3,11.75,1.96c3.52,0.59,7.1,1.06,10.56,1.94
			c3,0.76,5.96,1.9,8.26,4.04c2.28,2.12,3.86,4.86,5.07,7.7c1.21,2.85,2.33,5.96,2.92,9c0.53,2.73-0.56,4.67-2.85,6.08
			c-2.54,1.56-5.49,2.32-8.3,3.23c-3.79,1.23-7.59,2.45-11.41,3.61c-14.65,4.46-29.7,8.18-45.1,8.36
			c-17.11,0.2-34.46-3.61-51.3,0.98c0.64,1.52,1.28,3.05,1.93,4.57c8.74-4.88,19.12-6.65,28.98-4.81c0-1.61,0-3.21,0-4.82
			c-11.86,3.05-24.2,3.92-36.38,2.61c-2.97-0.32-5.92-0.79-8.85-1.38c-2.24-0.45-4.6-0.67-6.27-2.33c-0.31-0.3-0.47-0.49-0.64-0.78
			c-0.28-0.47,0.18-0.02-0.16-0.35c0.14,0.14-0.19,0.39,0.02-0.02c0.04-0.08-0.06,0.44-0.06,0.43c0.13,0.23-0.16,0.02-0.02,0.2
			c0.1,0.12,1.65,0,1.87,0c3.33,0.05,6.65,0.1,9.98,0.15c7.32,0.11,14.63,0.21,21.95,0.32c3.24,0.05,3.19-4.8,0-5
			c-8.55-0.54-17.11-1.08-25.66-1.63c-4.13-0.26-8.26-0.5-12.39-0.79c-3.37-0.23-6.96-0.57-9.89-2.42c-2.55-1.61-4.2-4.74-3-7.65
			c-1.03,0.58-2.05,1.16-3.08,1.75c4.65,1.59,7.51,6.45,7.13,11.26c1.64-0.22,3.27-0.44,4.91-0.66c-2.52-6.64-2.57-13.91-0.04-20.55
			c0.45-1.17,0.92-2.44,1.95-3.19c0.07-0.05-0.21,0.33-0.19,0.05c-0.21-0.11-0.19-0.09,0.07,0.06c-0.04-0.02-0.08-0.05-0.12-0.07
			c-0.15-0.36,0.17,0.27,0.2,0.34c-0.17-0.4,0.11,0.65,0.08,0.39c0.04,0.36,0.03,0.56-0.14,0.83c-0.25,0.42-0.64,0.7-1.06,0.94
			c-1.25,0.74-2.78,0.97-4.18,1.23c1.03,1.03,2.05,2.05,3.08,3.08c2.92-7.52,11.68-12.52,19.64-11.19c-0.2-1.52-0.4-3.05-0.6-4.57
			c-6.45,3.89-13.73,6.21-21.26,6.68c0.59,1.42,1.18,2.85,1.77,4.27c7.88-7.01,19.04-10.19,29.43-8.3c0-1.61,0-3.21,0-4.82
			c-7.56,1.74-15.23,2.74-22.98,2.99c-3.21,0.11-3.23,5.01,0,5c6.92-0.02,13.83-0.03,20.75-0.05
			C161.43,641.71,161.44,636.71,158.21,636.71L158.21,636.71z"/>
	</g>
</g>
<g>
	<g>
		<path class="st0" d="M138.56,742.26c-13.07-0.58-26.13-1.17-39.2-1.75c0,1.67,0,3.33,0,5c17.18-1.95,34.01-6.25,49.97-12.94
			c1.15-0.48,1.99-1.41,1.79-2.74c-0.18-1.2-1.19-2.19-2.46-2.17c-14.52,0.28-28.33,4.89-41.48,10.76
			c-13.3,5.94-25.99,13.16-39.41,18.82c-7.4,3.12-15.05,5.72-22.93,7.31c-1.98,0.4-2.57,3.72-0.6,4.57
			c10.21,4.41,22.18,2.69,30.67-4.54c1.5-1.27,0.57-3.67-1.1-4.18c-7.22-2.21-15.91,1.26-19.27,8.14
			c-3.48,7.12-1.12,15.82,5.16,20.5c0.2-1.52,0.4-3.05,0.6-4.57c-3.67,0.78-7.34,1.56-11.01,2.34c-1.86,0.4-2.39,2.92-1.1,4.18
			c14.67,14.41,35.89,21.69,56.33,19.8c5.75-0.53,11.42-1.73,16.86-3.69c2.65-0.95,2.22-4.74-0.66-4.91
			c-8.15-0.48-16.3-0.97-24.44-1.45c0.22,1.64,0.44,3.27,0.66,4.91c23.37-6.98,46.48-14.85,69.25-23.59
			c6.45-2.48,12.87-5.02,19.27-7.64c1.15-0.47,1.99-1.42,1.79-2.74c-0.18-1.21-1.19-2.17-2.46-2.17c-7.16,0.02-14.25,2.23-20.1,6.37
			c-2.31,1.64-0.93,5.13,1.93,4.57c24.67-4.89,49.33-9.78,74-14.67c6.93-1.37,13.85-2.75,20.78-4.12c1.02-0.2,1.89-1.38,1.84-2.41
			c-0.23-4.17-4.92-4.29-7.22-1.67c-1.22,1.39-1.6,3.34-0.64,4.98c1.05,1.78,3.07,2.6,5.04,2.74c1.98,0.14,3.94-0.45,5.82-0.98
			c2.37-0.67,4.76-1.28,7.16-1.82c4.67-1.06,9.39-1.89,14.14-2.43c5.47-0.63,10.97-0.93,16.47-0.92c2.61,0,3.23-3.31,1.26-4.66
			c-19.29-13.27-42.21-21.01-65.56-22.48c-6.57-0.41-13.16-0.3-19.7,0.32c0.22,1.64,0.44,3.27,0.66,4.91
			c12.01-1.79,24.35-0.74,35.92,2.87c0.44-1.61,0.89-3.21,1.33-4.82c-25.65-4.32-51.65-6.43-77.66-6.17
			c-7.35,0.07-14.7,0.34-22.04,0.78c-3.2,0.19-3.22,5.19,0,5c25.65-1.54,51.43-0.83,76.95,2.15c7.17,0.84,14.31,1.87,21.42,3.07
			c3.12,0.53,4.46-3.85,1.33-4.82c-12.48-3.89-25.67-4.8-38.58-2.87c-2.76,0.41-2.14,5.18,0.66,4.91
			c22.57-2.13,45.65,1.95,66.08,11.8c5.79,2.79,11.36,6.03,16.66,9.68c0.42-1.55,0.84-3.11,1.26-4.66
			c-9.58-0.01-19.17,0.93-28.57,2.82c-2.25,0.45-4.5,0.96-6.73,1.52c-2.15,0.54-4.3,1.33-6.49,1.72c-0.59,0.1-1.22,0.19-1.81,0.11
			c0.05,0.01-0.76-0.19-0.61-0.18c-0.38-0.02-0.18-0.88-0.01,0.47c-0.01,0.17-0.06,0.33-0.16,0.47c0.15-0.24,0.14-0.25-0.03-0.03
			c0.03-0.03,0.54-0.55,0.17-0.2c0.12-0.08,0.25-0.15,0.38-0.22c-0.28,0.11-0.28,0.13-0.02,0.05c-0.82-0.08-1.84-0.21-1.91-1.42
			c0.61-0.8,1.22-1.61,1.84-2.41c-24.67,4.89-49.33,9.78-74,14.68c-6.93,1.37-13.85,2.75-20.78,4.12c0.64,1.52,1.28,3.05,1.93,4.57
			c5.17-3.66,11.23-5.66,17.58-5.68c-0.22-1.64-0.44-3.27-0.66-4.91c-22.58,9.23-45.51,17.6-68.73,25.09
			c-6.58,2.12-13.18,4.17-19.8,6.15c-2.76,0.83-2.13,4.74,0.66,4.91c8.15,0.48,16.3,0.97,24.44,1.45c-0.22-1.64-0.44-3.27-0.66-4.91
			c-18.11,6.53-38.78,4.45-55.45-5.09c-4.7-2.69-9.02-5.94-12.88-9.74c-0.37,1.39-0.74,2.79-1.1,4.18
			c3.67-0.78,7.34-1.56,11.01-2.34c2.32-0.49,2.17-3.4,0.6-4.57c-4.09-3.05-5.58-9.45-3.2-13.97c2.49-4.75,8.37-7.08,13.47-5.53
			c-0.37-1.39-0.74-2.79-1.1-4.18c-6.61,5.62-16.62,7.2-24.62,3.76c-0.2,1.52-0.4,3.05-0.6,4.57c14.18-2.86,27.42-8.98,40.31-15.35
			c12.79-6.32,25.47-13.12,39.14-17.38c7.49-2.33,15.19-3.82,23.05-3.97c-0.22-1.64-0.44-3.27-0.66-4.91
			c-15.51,6.5-31.92,10.86-48.64,12.76c-3.14,0.36-3.29,4.85,0,5c13.07,0.58,26.13,1.17,39.2,1.75
			C141.78,747.41,141.77,742.41,138.56,742.26L138.56,742.26z"/>
	</g>
</g>
<g>
	<g>
		<path class="st0" d="M239.76,378.14c-7.9,2.76-14.66,8.12-19.19,15.16c-4.8,7.46-6.45,16.4-5.16,25.13
			c1.35,9.11,6.23,16.97,13.06,23.02c3.56,3.15,7.45,5.92,11.34,8.65c4.05,2.84,8.2,5.55,12.59,7.83c8.5,4.41,18.18,7.24,27.72,4.86
			c7.26-1.81,13.31-6.74,17.37-12.92c4.09-6.22,6.25-13.83,6.15-21.27c-0.11-8.15-3.07-16.17-7.52-22.94
			c-4.72-7.18-11.04-13.16-18.1-18.01c-6.58-4.51-14-8-21.89-9.38c-7.55-1.32-15.84-0.85-22.36,3.57
			c-7.29,4.94-10.69,13.52-12.51,21.83c-3.18,14.49-1.5,31.1,7.22,43.46c4.77,6.75,11.32,11.66,19.09,14.48
			c8.69,3.17,18.21,3.63,27.38,3.36c4.89-0.15,9.8-0.64,14.31-2.67c3.15-1.42,5.99-3.63,8.21-6.28c4.72-5.65,7.07-12.96,7.22-20.28
			c0.34-17.13-12.31-30.6-25.6-39.66c-7.4-5.05-16.54-11.16-25.93-8.89c-4.5,1.09-8.44,3.89-11.74,7.05
			c-3.01,2.88-5.59,6.28-7.6,9.93c-4.07,7.4-5.87,15.93-4.62,24.32c1.18,7.92,5.59,14.95,11.9,19.81
			c6.28,4.83,14.22,7.28,22.11,6.06c8.01-1.25,15.05-6.74,19.03-13.69c4.24-7.42,4.8-16.48,1.83-24.47
			c-1.53-4.11-3.81-7.88-6.83-11.07c-3.1-3.27-7.32-6.33-12.02-6.25c-4.61,0.08-8.81,3.2-11.89,6.39c-2.83,2.94-4.97,6.45-6.4,10.26
			c-2.7,7.23-2.22,15.9,2.53,22.19c4.38,5.8,11.72,9.57,19.06,9.16c7.32-0.41,13.31-4.89,15.66-11.83
			c2.07-6.11,1.08-13.46-3.27-18.36c-5.18-5.83-13.96-5.92-20.46-2.41c-6.85,3.7-13.88,13.93-7.99,21.3
			c2.61,3.26,7.16,4.41,11.17,4.25c3.78-0.15,7.49-1.37,10.68-3.4c6.44-4.1,10.87-11.07,11.65-18.68c0.39-3.77-0.19-8.33-2.45-11.48
			c-3.01-4.18-8.1-4.23-12.72-3.32c-4.55,0.9-8.99,2.73-12.86,5.29c-3.71,2.46-6.98,5.54-8.47,9.85c-1.37,3.95-0.11,8.59,3.86,10.44
			c4.02,1.87,8.84,0.4,11.62-2.92c2.82-3.37,3.86-7.91,3.97-12.23c0.12-4.76-1.08-9.47-3.31-13.65c-0.58-1.09-2.38-1.7-3.42-0.9
			c-9,6.91-13.02,19.47-8.96,30.23c0.52,1.38,1.63,1.97,3.08,1.75c6.17-0.97,9.52-8.99,6.2-14.16c-0.73-1.14-2.21-1.6-3.42-0.9
			c-5.07,2.95-5.83,10.9-1.13,14.57c4.72,3.68,12.19,1.02,13.87-4.61c0.92-3.09-3.9-4.41-4.82-1.33c-0.69,2.3-4.16,3.48-6.02,2
			c-1.91-1.52-1.46-5.11,0.62-6.32c-1.14-0.3-2.28-0.6-3.42-0.9c1.63,2.53-0.02,6.32-3.21,6.82c1.03,0.58,2.05,1.16,3.08,1.75
			c-3.19-8.48-0.63-18.98,6.67-24.59c-1.14-0.3-2.28-0.6-3.42-0.9c1.9,3.56,2.79,7.53,2.61,11.56c-0.14,3.32-0.98,7.54-3.86,9.61
			c-1.95,1.4-5.5,1.38-6.08-1.34c-0.58-2.73,1.96-5.93,4.01-7.69c2.94-2.53,6.58-4.42,10.26-5.62c1.82-0.59,3.73-1.1,5.63-1.29
			c1.59-0.16,3.56-0.22,4.87,0.85c1.24,1.02,1.71,2.86,2.03,4.35c0.31,1.43,0.36,2.92,0.26,4.4c-0.2,2.91-1.27,5.83-2.8,8.36
			c-3.08,5.08-8.55,9.12-14.59,9.36c-2.73,0.11-6.41-0.44-7.8-3.15c-1.47-2.87,0.35-6.69,2.17-8.97c3.65-4.58,10.46-7.45,16.04-4.96
			c4.69,2.09,6.49,7.25,6.12,12.23c-0.08,1.09-0.33,2.32-0.76,3.6c-0.37,1.12-0.87,2.15-1.62,3.28c-1.34,2.01-3.45,3.59-5.96,4.38
			c-5.33,1.68-11.53-0.02-15.82-3.77c-10.46-9.17-5.31-26.83,6.18-32.76c3.55-1.83,7.08-0.14,9.84,2.32c2.8,2.49,5,5.54,6.57,8.94
			c2.91,6.28,3.26,13.9,0.31,20.23c-2.86,6.14-8.22,11.14-14.85,12.87c-6.26,1.63-12.86-0.04-18.21-3.5
			c-5.46-3.53-9.58-9.01-11.21-15.32c-1.76-6.78-0.83-14.14,1.97-20.52c2.89-6.59,7.85-13.01,14.32-16.39
			c3.54-1.85,7.31-2.04,11.1-0.89c3.91,1.19,7.47,3.42,10.91,5.57c11.83,7.41,24.36,18.19,26.47,32.84
			c0.83,5.81-0.07,12.17-2.79,17.43c-2.92,5.67-7.68,9.58-13.97,10.91c-4.11,0.87-8.44,0.84-12.63,0.81
			c-4.01-0.03-8.05-0.24-12.02-0.9c-7.4-1.22-14.65-3.88-20.27-8.98c-9.63-8.73-13.33-22.19-12.93-34.85
			c0.21-6.78,1.53-13.85,4.36-20.05c1.5-3.3,3.53-6.4,6.45-8.61c2.54-1.92,5.52-3.08,8.63-3.65c6.49-1.21,13.36,0.27,19.43,2.59
			c6.6,2.52,12.73,6.57,18.03,11.21c10.37,9.1,18.61,22.39,16.66,36.68c-1.72,12.64-10.93,24.66-24.44,25.19
			c-8.44,0.33-16.44-3.33-23.52-7.59c-3.7-2.22-7.24-4.68-10.74-7.2c-3.39-2.43-6.72-4.94-9.7-7.87
			c-5.47-5.39-9.12-12.33-9.86-20.03c-0.72-7.43,1.09-14.75,5.29-20.93c3.77-5.53,9.36-9.88,15.69-12.09
			c1.27-0.45,2.12-1.71,1.75-3.08C242.5,378.65,241.04,377.69,239.76,378.14L239.76,378.14z"/>
	</g>
</g>
<g>
	<g>
		<path class="st0" d="M465.63,400.9c-12.65,6.07-15.2,22.16-16.51,34.63c-1.35,12.99-1.21,28.53,8.48,38.55
			c5.39,5.58,12.83,8.01,20.39,8.78c3.86,0.39,7.79,0.39,11.66,0.1c4.28-0.32,8.23-1.4,11.46-4.36c5.78-5.3,8.4-13.9,9.04-21.49
			c0.67-7.87-0.87-15.87-3.92-23.12c-3.15-7.46-7.78-14.15-13.12-20.21c-2.65-3-5.47-5.84-8.4-8.57c-2.87-2.67-5.87-5.41-9.49-7
			c-15.67-6.87-29.28,9.76-34.72,22.47c-5.97,13.96-7.08,30.92,3.16,43.21c8.32,9.99,22.1,13.61,34.65,13.21
			c6.72-0.22,13.62-1.44,19.88-3.94c3.76-1.5,7.12-3.55,9.54-6.87c2.01-2.75,2.94-6.12,3.17-9.48c0.5-7.18-2.24-14.38-5.44-20.67
			c-3.91-7.69-8.4-15.41-13.84-22.14c-2.37-2.93-5.77-5.1-9.67-4.72c-3.55,0.35-6.63,2.48-8.95,5.09
			c-5.39,6.08-7.52,14.54-9.07,22.32c-1.4,7.06-2.29,14.49-0.46,21.57c1.67,6.49,6.24,12.39,13.17,13.54
			c7.8,1.3,15.11-2.67,19.72-8.8c4.82-6.39,6.76-14.78,7.49-22.6c0.79-8.44-0.22-17.14-2.92-25.18c-2.41-7.16-6.18-15.4-13.59-18.53
			c-3.26-1.38-7.15-1.7-10.49-0.38c-3.81,1.51-6.06,4.7-7.26,8.52c-1.2,3.8-1.86,7.84-2.59,11.75c-0.76,4.09-1.37,8.22-1.62,12.37
			c-0.48,7.93,0.38,16.73,4.59,23.67c1.91,3.14,5.04,5.92,8.95,5.47c3.93-0.46,6.9-3.79,8.76-7.05c3.28-5.74,3.83-13.02,1.68-19.25
			c-1.1-3.19-2.85-6.17-5.26-8.55c-2.74-2.71-7.18-5.02-10.88-2.72c-1.64,1.02-2.58,2.69-3.33,4.41c-0.88,2.01-1.74,4.04-2.53,6.09
			c-1.56,4.07-2.76,8.34-2.85,12.72c-0.15,6.89,3.01,14.68,9.61,17.66c6.42,2.9,13.59,0.57,18.56-4.04
			c5.72-5.29,7.61-13.06,6.77-20.63c-0.48-4.35-1.63-8.54-3.15-12.63c-1.29-3.47-2.6-7.55-5.52-10.04
			c-7.49-6.38-13.79,5.23-15.96,11.09c-2.57,6.93-2.77,14.78-0.54,21.83c0.34,1.06,1.28,1.83,2.41,1.84
			c4.42,0.03,8.71-1.84,11.81-4.96c2.98-3,5.77-8.27,4.19-12.56c-1.59-4.32-7.14-5.35-10.85-3.21c-4.2,2.42-5.99,7.77-7.04,12.21
			c-1.4,5.93-1.38,12.09-0.04,18.02c0.39,1.72,2.28,2.11,3.67,1.49c9.73-4.33,15.15-15.81,12.85-26.1
			c-0.37-1.64-2.31-2.21-3.67-1.49c-4.76,2.52-6.42,8.47-4.28,13.25c0.58,1.3,2.31,1.43,3.42,0.9c3.88-1.88,5.82-6.51,4.75-10.63
			c-0.42-1.61-2.27-2.24-3.67-1.49c-2.96,1.58-6.44,3.92-6.48,7.68c-0.05,3.62,2.82,6.71,6.52,6.03c1.33-0.24,2.08-1.86,1.75-3.08
			c-0.38-1.4-1.74-1.99-3.08-1.75c0.19-0.03,0.23-0.01,0.37,0.1c-0.22-0.19-0.34-0.29-0.48-0.66c-0.11-0.27-0.11-0.7,0.06-1.05
			c0.68-1.44,2.55-2.26,3.87-2.97c-1.22-0.5-2.45-1-3.67-1.49c0.54,2.05-0.55,4.06-2.45,4.98c1.14,0.3,2.28,0.6,3.42,0.9
			c-1.04-2.32,0.27-5.23,2.48-6.41c-1.22-0.5-2.45-1-3.67-1.49c1.85,8.27-2.91,17.05-10.55,20.45c1.22,0.5,2.45,1,3.67,1.49
			c-0.89-3.93-1.1-8-0.59-12c0.45-3.55,1.39-7.45,3.32-10.5c0.69-1.1,1.71-2.13,2.89-2.42c0.86-0.22,1.96-0.06,2.49,0.46
			c0.78,0.76,0.31,2.45-0.04,3.52c-0.43,1.32-1.17,2.59-2.09,3.63c-2.27,2.58-5.43,4.17-8.89,4.15c0.8,0.61,1.61,1.22,2.41,1.84
			c-1.97-6.22-1.75-12.86,0.47-18.98c1.05-2.9,2.63-5.89,4.73-8.18c0.72-0.78,1.57-1.54,2.53-1.12c1.01,0.44,1.75,1.65,2.29,2.59
			c1.74,3.06,2.88,6.63,3.87,10c1.05,3.57,1.74,7.23,1.65,10.97c-0.15,5.93-2.67,11.45-7.79,14.67c-4.42,2.78-9.85,3.08-13.64-0.94
			c-4.36-4.62-4.25-11.6-2.69-17.34c0.98-3.61,2.41-7.14,3.98-10.53c0.45-0.98,0.97-2.28,2.23-2.19c1.31,0.09,2.53,0.97,3.47,1.84
			c3.99,3.72,5.74,9.25,5.39,14.62c-0.17,2.54-0.89,5.1-2.14,7.33c-1.08,1.93-3.23,5.24-5.83,4.73c-2.57-0.5-4.06-4.09-4.89-6.22
			c-1.28-3.27-2.04-6.73-2.31-10.22c-0.57-7.24,0.52-14.47,1.95-21.55c0.68-3.37,1.14-7.07,2.5-10.25c1.04-2.43,2.98-4.07,5.65-4.35
			c6.63-0.69,10.92,5.29,13.42,10.58c3.1,6.56,4.79,13.87,5.11,21.1c0.32,7.18-0.6,14.53-3.16,21.27
			c-2.21,5.81-6.29,11.29-12.5,13.05c-2.7,0.77-5.72,0.83-8.31-0.38c-2.27-1.06-3.98-2.83-5.17-4.99
			c-2.64-4.77-2.79-10.76-2.25-16.07c0.37-3.69,1.08-7.36,1.96-10.96c0.87-3.55,1.81-7.26,3.35-10.59
			c1.89-4.08,6.44-10.99,11.64-8.96c2.96,1.15,4.9,4.84,6.59,7.31c2.19,3.2,4.25,6.48,6.19,9.83c3.35,5.81,6.61,11.83,8.01,18.45
			c1.15,5.45,0.76,11.52-3.71,15.39c-2.39,2.07-5.55,3.15-8.53,4.06c-2.77,0.85-5.61,1.48-8.47,1.92
			c-10.68,1.62-22.57,0.31-31.67-5.87c-4.52-3.07-8.16-7.54-10.09-12.66c-2.33-6.15-2.52-12.9-1.28-19.32
			c1.28-6.6,3.84-13.02,7.46-18.68c3.34-5.22,8.2-10.43,14.2-12.5c2.77-0.95,5.65-1.15,8.46-0.28c3.23,1,5.88,3.3,8.33,5.54
			c5.16,4.71,10.1,9.78,14.23,15.44c8.04,11.04,13.25,24.96,10.08,38.69c-1.34,5.78-4.41,13.48-10.64,15.38
			c-3.27,0.99-6.9,0.93-10.29,0.9c-3.34-0.03-6.69-0.28-9.95-1.02c-5.9-1.34-11.29-4.36-14.71-9.47
			c-3.12-4.67-4.52-10.27-5.01-15.81c-0.54-6.14-0.15-12.33,0.58-18.44c0.68-5.73,1.7-11.57,3.91-16.92
			c1.98-4.8,5.13-8.99,9.89-11.27c1.22-0.58,1.54-2.32,0.9-3.42C468.32,400.55,466.85,400.31,465.63,400.9L465.63,400.9z"/>
	</g>
</g>
<g>
	<g>
		<path class="st0" d="M559.82,275.45c2.1-7.37,7.53-13.2,13.65-17.56c6.25-4.46,13.26-7.9,20.67-9.92c7-1.91,14.57-2.62,21.63-0.63
			c7.18,2.02,12.88,6.92,16.12,13.62c7.54,15.58,0.26,33.01-9,46.04c-9.2,12.95-21.27,23.85-34.87,32.02
			c-13.66,8.21-28.93,13.72-44.72,15.91c-1.83,0.25-3.68,0.45-5.52,0.61c0.59,1.42,1.18,2.85,1.77,4.27
			c4.64-5.84,5.67-13.15,5.68-20.42c0-3.82-0.05-7.71-0.64-11.5c-0.56-3.58-2.07-6.8-4.4-9.56c-4.09-4.85-10.13-7.59-15.6-10.54
			c-5.93-3.21-11.36-7.2-15.87-12.25c-8.81-9.87-12.9-23.72-8.15-36.44c2.14-5.72,6.22-10.48,11.65-13.29
			c5.07-2.63,11.2-3.51,16.75-2c5.87,1.59,9.99,5.95,13.29,10.85c3.58,5.3,6.52,11.1,10.97,15.78c1.13,1.18,2.36,2.23,3.65,3.22
			c1.07,0.83,2.8,0.16,3.42-0.9c0.76-1.29,0.18-2.59-0.9-3.42c-4.95-3.82-7.98-9.62-11.26-14.8c-3.46-5.45-7.5-10.96-13.45-13.87
			c-12.03-5.89-27.01-1.22-34.8,9.29c-8.47,11.43-7.93,27.52-1.41,39.68c3.32,6.19,8.12,11.59,13.61,15.92
			c2.8,2.21,5.75,4.21,8.87,5.94c2.84,1.58,5.76,3.01,8.56,4.68c2.62,1.56,5.14,3.32,7.12,5.68c2.12,2.53,3.01,5.67,3.28,8.91
			c0.31,3.72,0.38,7.51,0.24,11.23c-0.13,3.45-0.57,6.93-1.84,10.17c-0.57,1.44-1.36,2.87-2.32,4.09c-0.64,0.8-0.96,1.73-0.52,2.73
			c0.37,0.85,1.29,1.62,2.28,1.54c17.01-1.47,33.58-6.56,48.55-14.77c14.94-8.2,28.14-19.47,38.49-33.01
			c10.75-14.06,19.26-32.43,13.07-50.23c-2.74-7.88-8.24-14.67-15.91-18.19c-7.49-3.43-15.81-3.75-23.84-2.38
			c-8.13,1.39-15.96,4.61-23,8.87c-7.12,4.31-13.93,9.97-17.82,17.47c-0.96,1.86-1.74,3.82-2.32,5.83
			C554.12,277.22,558.94,278.54,559.82,275.45L559.82,275.45z"/>
	</g>
</g>
<g>
	<g>
		<path class="st0" d="M611.66,259.57c-7.7-3.42-17.39-0.38-21.19,7.35c-3.75,7.6-1.61,16.8,5.15,21.88
			c6.08,4.57,15.07,5.1,21.24,0.43c6.05-4.57,9.21-13.1,6.59-20.4c-3.03-8.42-12.28-13.5-21.01-11.68
			c-1.32,0.28-2.09,1.83-1.75,3.08c0.38,1.37,1.75,2.02,3.08,1.75c5.4-1.13,11.29,1.76,14.03,6.48c2.77,4.77,1.63,11.04-2.02,15.04
			c-3.78,4.15-9.75,5.12-14.79,2.73c-5.41-2.56-8.48-8.29-7.09-14.23c0.8-3.4,2.88-6.15,6.01-7.71c2.77-1.39,6.34-1.66,9.21-0.39
			c1.23,0.55,2.69,0.36,3.42-0.9C613.18,261.93,612.9,260.12,611.66,259.57L611.66,259.57z"/>
	</g>
</g>
<g>
	<g>
		<path class="st0" d="M511.41,243.31c-2.73,4.59-5.45,9.18-8.18,13.77c-1.49,2.51,1.86,4.9,3.93,3.03
			c4.61-4.17,9.88-7.48,15.58-9.93c-1.01-1.31-2.02-2.62-3.03-3.93c-5.86,6.19-10.9,13.15-14.9,20.67c-1.3,2.44,1.89,5.14,3.93,3.03
			c4.84-5.01,8.49-10.97,10.8-17.53c0.33-0.93-0.15-2.07-0.9-2.63c-0.87-0.65-1.81-0.61-2.78-0.2c-6.15,2.65-11.31,7.37-14.62,13.19
			c1.55,0.42,3.11,0.84,4.66,1.26c-0.17-2.24,0.49-4.28,2.09-5.89c-1.42-0.59-2.85-1.18-4.27-1.77c0.45,4.9,0.15,9.78-1,14.57
			c-0.67,2.81,2.99,4.27,4.57,1.93c2.77-4.11,5.54-8.21,8.31-12.32c1.81-2.68-2.52-5.17-4.32-2.52c-2.96,4.35-5.91,8.71-8.87,13.06
			c1.14-0.3,2.28-0.6,3.42-0.9c-1.49-1.1-2.44-2.73-2.89-4.5c-0.57-2.23-4.46-2.53-4.82,0c-0.84,5.98,1.74,11.92,6.96,15.08
			c2.76,1.67,5.28-2.65,2.52-4.32c-3.13-1.89-5.19-5.74-4.67-9.43c-1.61,0-3.21,0-4.82,0c0.8,3.1,2.63,5.6,5.19,7.49
			c1.14,0.84,2.73,0.12,3.42-0.9c2.96-4.35,5.91-8.71,8.87-13.06c-1.44-0.84-2.88-1.68-4.32-2.52c-2.77,4.11-5.54,8.21-8.31,12.32
			c1.52,0.64,3.05,1.28,4.57,1.93c1.24-5.2,1.67-10.57,1.17-15.9c-0.19-2.07-2.64-3.4-4.27-1.77c-2.47,2.47-3.83,5.92-3.56,9.42
			c0.18,2.36,3.36,3.55,4.66,1.26c2.93-5.15,7.4-9.05,12.83-11.39c-1.22-0.94-2.45-1.88-3.67-2.82c-2.02,5.74-5.29,10.96-9.51,15.33
			c1.31,1.01,2.62,2.02,3.93,3.03c3.82-7.17,8.54-13.77,14.12-19.66c0.85-0.9,0.98-2.3,0.2-3.28c-0.84-1.05-2.04-1.15-3.23-0.64
			c-6.1,2.62-11.67,6.27-16.59,10.72c1.31,1.01,2.62,2.02,3.93,3.03c2.73-4.59,5.45-9.18,8.18-13.77
			C517.38,243.06,513.06,240.54,511.41,243.31L511.41,243.31z"/>
	</g>
</g>
<g>
	<g>
		<path class="st0" d="M550.65,349.66c2.21-0.33,4.41-0.66,6.62-0.98c-0.89-3.21-1.77-6.43-2.66-9.64c-1.39,0.27-2.76,0.84-4,1.51
			c-1.24,0.67-2.41,1.57-3.4,2.56c-0.63,0.63-1.16,1.34-1.7,2.04c-0.33,0.43-0.63,0.87-0.89,1.34c-0.68,1.23-1.25,2.6-1.53,3.99
			c-0.27,1.32-0.19,2.66,0.5,3.85c0.61,1.04,1.8,2.03,2.99,2.3c1.28,0.29,2.72,0.23,3.85-0.5c1.05-0.68,2.04-1.72,2.3-2.99
			c0.13-0.64,0.32-1.26,0.58-1.86c-0.17,0.4-0.34,0.8-0.5,1.19c0.35-0.81,0.8-1.57,1.34-2.27c-0.26,0.34-0.52,0.67-0.78,1.01
			c0.55-0.7,1.17-1.32,1.87-1.87c-0.34,0.26-0.67,0.52-1.01,0.78c0.7-0.54,1.46-0.99,2.27-1.34c-0.4,0.17-0.8,0.34-1.19,0.5
			c0.64-0.27,1.3-0.47,1.97-0.6c1.18-0.23,2.4-1.29,2.99-2.3c0.63-1.07,0.89-2.65,0.5-3.85c-0.39-1.21-1.14-2.38-2.3-2.99
			c-0.4-0.17-0.8-0.34-1.19-0.5c-0.89-0.24-1.77-0.24-2.66,0c-2.21,0.33-4.41,0.66-6.62,0.98c-0.65,0.15-1.22,0.45-1.7,0.89
			c-0.54,0.35-0.97,0.82-1.29,1.4c-0.63,1.07-0.89,2.65-0.5,3.85c0.39,1.21,1.14,2.38,2.3,2.99c0.4,0.17,0.8,0.34,1.19,0.5
			C548.88,349.9,549.77,349.9,550.65,349.66L550.65,349.66z"/>
	</g>
</g>
<g>
	<g>
		<path class="st0" d="M503.96,252.81c-7.5,4.01-9.89,13.18-8.4,21.04c1.63,8.55,8.4,15.13,14.4,20.93
			c3.93,3.8,7.87,7.61,11.8,11.41c0.74-2.79,1.47-5.57,2.21-8.36c1.87-0.35-0.36,0.13-0.35-0.06c0.72,0.12,0.88,0.13,0.5,0.06
			c-0.16-0.03-0.33-0.07-0.49-0.12c-0.94-0.21,0.89,0.52-0.21-0.08c-0.15-0.08-0.3-0.16-0.44-0.26c-0.44-0.31-0.38-0.25,0.19,0.18
			c-0.19,0.01-0.58-0.56-0.73-0.71c-0.35-0.41-0.3-0.34,0.16,0.21c-0.13-0.19-0.24-0.38-0.35-0.58c-0.51-0.76,0.16,0.93-0.01-0.04
			c-0.06-0.21-0.12-0.43-0.15-0.65c0.09,0.77,0.12,0.88,0.09,0.32c-0.83,1.44-1.65,2.88-2.48,4.32c0.3-0.18,0.63-0.32,0.92-0.51
			c0.57-0.37-0.69,0.2-0.04,0c0.68-0.2,1.33-0.38,2.02-0.55c0.68-0.17-0.78,0-0.08,0.02c0.35,0.01,0.7-0.04,1.05-0.03
			c0.16,0,0.72-0.06,0.84,0.04c-0.57-0.09-0.66-0.1-0.29-0.04c0.21,0.03,0.41,0.08,0.62,0.13c2.55,0.56,5.53-0.76,6.15-3.49
			c0.58-2.53-0.76-5.55-3.49-6.15c-4.37-0.96-8.86-0.36-12.72,1.94c-1.48,0.88-2.53,2.56-2.48,4.32c0.09,3.34,1.57,6.61,4.19,8.73
			c3,2.42,6.45,3.35,10.25,2.64c3.75-0.7,4.75-5.89,2.21-8.36c-3.17-3.07-6.34-6.13-9.51-9.2c-2.82-2.73-5.72-5.41-8.34-8.34
			c-0.55-0.62-1.08-1.25-1.61-1.89c-0.13-0.16-0.56-0.76,0.02,0.04c-0.12-0.17-0.25-0.33-0.37-0.49c-0.28-0.39-0.55-0.78-0.82-1.17
			c-0.49-0.73-0.95-1.49-1.36-2.27c-0.23-0.42-0.43-0.85-0.64-1.27c-0.04-0.08-0.32-0.71-0.08-0.15c0.25,0.57-0.09-0.25-0.13-0.35
			c-0.26-0.71-0.49-1.44-0.66-2.18c-0.08-0.33-0.13-0.66-0.2-0.99c-0.17-0.88,0.05,0.21,0.04,0.33c0.03-0.2-0.05-0.46-0.06-0.67
			c-0.05-0.73-0.06-1.46-0.02-2.19c0.02-0.34,0.06-0.67,0.08-1c0.05-0.68-0.21,1-0.04,0.34c0.06-0.21,0.08-0.44,0.12-0.65
			c0.05-0.25,0.58-2.4,0.7-2.37c0.04,0.01-0.45,0.93-0.19,0.45c0.1-0.19,0.18-0.39,0.28-0.58c0.2-0.38,0.42-0.74,0.65-1.11
			c0.02-0.03,0.27-0.4,0.27-0.4c0.03,0.02-0.74,0.85-0.2,0.26c0.29-0.32,0.56-0.63,0.87-0.92c0.11-0.11,0.25-0.2,0.36-0.32
			c0.37-0.42-0.99,0.63-0.12,0.1c0.37-0.23,0.73-0.46,1.12-0.67c2.31-1.23,3.22-4.63,1.79-6.84
			C509.28,252.26,506.43,251.49,503.96,252.81L503.96,252.81z"/>
	</g>
</g>
<g>
	<g>
		<path class="st0" d="M552.12,351.85c5.22-14.11,4.06-30.07-2.56-43.5c-1.16-2.35-4.68-3.19-6.84-1.79
			c-2.41,1.55-3.03,4.33-1.79,6.84c0.38,0.76,0.73,1.54,1.08,2.31c-0.47-1.04,0.1,0.25,0.14,0.38c0.16,0.4,0.3,0.79,0.45,1.19
			c0.53,1.47,0.99,2.96,1.38,4.46c0.43,1.65,0.75,3.32,1.02,5c0.18,1.09-0.08-0.85,0.05,0.36c0.04,0.35,0.08,0.7,0.11,1.06
			c0.08,0.85,0.14,1.7,0.18,2.54c0.08,1.63,0.08,3.26,0,4.89c-0.04,0.85-0.1,1.7-0.19,2.54c-0.03,0.35-0.08,0.7-0.12,1.06
			c-0.05,0.37-0.03,0.28,0.04-0.28c-0.03,0.21-0.06,0.42-0.09,0.63c-0.51,3.3-1.36,6.52-2.52,9.65c-0.91,2.46,1.01,5.59,3.49,6.15
			C548.8,355.99,551.15,354.48,552.12,351.85L552.12,351.85z"/>
	</g>
</g>
<g>
	<g>
		<path class="st0" d="M535,308.5c2.62,0,5.12-2.3,5-5c-0.12-2.71-2.2-5-5-5c-2.62,0-5.12,2.3-5,5
			C530.12,306.21,532.2,308.5,535,308.5L535,308.5z"/>
	</g>
</g>
<g>
	<g>
		<path class="st0" d="M526.07,310.29c2.62,0,5.12-2.3,5-5c-0.12-2.71-2.2-5-5-5c-2.62,0-5.12,2.3-5,5
			C521.19,307.99,523.27,310.29,526.07,310.29L526.07,310.29z"/>
	</g>
</g>
<g>
	<g>
		<path class="st0" d="M530.63,311.48c0.43,0.27,0.85,0.55,1.26,0.83c0.21,0.14,0.41,0.29,0.62,0.44c0.32,0.23,0.65,0.72-0.17-0.14
			c0.68,0.72,1.57,1.29,2.3,1.97c0.7,0.66,1.37,1.35,2.01,2.06c0.34,0.38,0.66,0.76,0.98,1.15c0.25,0.3,0.46,0.87-0.12-0.18
			c0.12,0.21,0.31,0.41,0.45,0.61c1.16,1.59,2.18,3.28,3.05,5.05c0.22,0.45,0.4,0.93,0.63,1.38c-0.1-0.19-0.4-0.98-0.15-0.36
			c0.11,0.28,0.22,0.56,0.33,0.85c0.35,0.95,0.65,1.91,0.91,2.89c0.68,2.53,3.59,4.32,6.15,3.49c2.59-0.84,4.22-3.44,3.49-6.15
			c-2.5-9.3-8.56-17.39-16.69-22.52c-2.21-1.4-5.61-0.54-6.84,1.79C527.53,307.11,528.27,309.99,530.63,311.48L530.63,311.48z"/>
	</g>
</g>
<g>
	<g>
		<path class="st0" d="M508.2,294.04c-0.82-0.14-0.97-0.16-0.44-0.04c0.09,0.03,0.19,0.06,0.28,0.09c-0.68-0.31-0.86-0.38-0.52-0.2
			c0.13,0.07,0.26,0.15,0.38,0.23c-0.57-0.46-0.71-0.56-0.43-0.31c0.11,0.1,0.22,0.21,0.32,0.32c-0.43-0.59-0.53-0.72-0.32-0.41
			c0.09,0.12,0.17,0.25,0.24,0.39c0.51,0.72-0.2-1.01-0.03-0.08c0.03,0.1,0.05,0.19,0.08,0.29c0.11,0.54,0.09,0.39-0.05-0.44
			c-0.06,0.07-0.01,1.23,0.04,0.22c0.07-0.47,0.07-0.49-0.03-0.08c-0.17,0.5-0.12,0.38,0.15-0.36c-1.12,2.17-0.8,5.73,1.79,6.84
			c3.93,1.68,7.87,3.37,11.8,5.05c1.97,0.84,3.93,1.68,5.9,2.53c2.25,0.96,4.42,1.98,6.92,2.05c5.49,0.14,9.27-4.71,8.19-9.95
			c-0.75-3.64-3.79-6.9-7-8.58c-0.7-0.36-1.4-0.72-2.08-1.11c-0.35-0.2-0.69-0.41-1.03-0.62c-0.19-0.12-0.38-0.26-0.57-0.38
			c-0.67-0.43,0.17,0.19,0.21,0.18c-0.12,0.04-0.73-0.66-0.83-0.76c-0.03-0.03-0.29-0.35-0.32-0.34c0.14-0.03,0.58,0.96,0.25,0.29
			c-0.04-0.09-0.23-0.48-0.28-0.51c0.14,0.09,0.38,1.08,0.22,0.39c-0.02-0.07,0.19,1.18,0.09,0.62c-0.07-0.35,0.2-1.11-0.08,0.28
			c-2.05,1.16-4.1,2.33-6.15,3.49c0.52,0.14,1.04,0.29,1.56,0.47c0.32,0.11,0.64,0.22,0.96,0.34c0.1,0.04,0.92,0.38,0.34,0.13
			c-0.58-0.25,0.23,0.11,0.33,0.16c0.25,0.12,0.49,0.23,0.73,0.36c0.54,0.28,1.08,0.57,1.6,0.88c0.46,0.28,0.92,0.57,1.37,0.88
			c0.22,0.15,0.44,0.31,0.66,0.47c0.43,0.31,0.28,0.24-0.05-0.04c0.92,0.81,1.83,1.6,2.67,2.49c1.8,1.9,5.28,1.95,7.07,0
			c2.01-2.19,1.73-4.87,0-7.07c-4.69-5.97-9.77-11.61-15.22-16.89c-1.8-1.74-4.59-1.92-6.57-0.39c-2,1.55-2.47,4.22-1.29,6.45
			c1.77,3.33,3.55,6.65,5.32,9.98c2.28-2.28,4.56-4.56,6.84-6.84c-4.47-2.82-8.94-5.65-13.42-8.47c-2.22-1.4-5.61-0.54-6.84,1.79
			c-1.3,2.47-0.57,5.35,1.79,6.84c4.47,2.82,8.94,5.65,13.42,8.47c1.8,1.14,4.61,0.8,6.06-0.78c1.55-1.69,1.87-4.03,0.78-6.06
			c-1.77-3.33-3.55-6.65-5.32-9.98c-2.62,2.02-5.24,4.04-7.85,6.06c5.45,5.28,10.53,10.92,15.22,16.89
			c2.36-2.36,4.71-4.71,7.07-7.07c-3.95-4.17-9.05-7.19-14.59-8.7c-2.46-0.67-5.63,0.83-6.15,3.49c-1.03,5.22,1.94,9.06,6.19,11.69
			c0.77,0.48,1.58,0.91,2.38,1.32c0.28,0.15,0.58,0.28,0.86,0.44c0.19,0.1,0.37,0.22,0.55,0.33c0.43,0.31,0.36,0.24-0.22-0.19
			c0.2-0.02,0.84,0.78,0.98,0.92c0.15,0.16,0.3,0.33,0.44,0.51c-0.4-0.54-0.5-0.65-0.29-0.35c0.03,0.1,0.5,0.95,0.56,0.96
			c-0.29-0.73-0.35-0.85-0.17-0.36c0.06,0.18,0.1,0.37,0.14,0.55c-0.09-0.88-0.13-1.05-0.11-0.52c0.16-0.89,0.18-1.08,0.06-0.57
			c0.37-0.78,0.43-0.95,0.17-0.5c0.14-0.2,0.29-0.4,0.43-0.59c0.67-0.47,0.75-0.54,0.22-0.21c0.32-0.22,0.68-0.33,1.07-0.32
			c-0.57-0.02-0.51,0.01,0.16,0.09c-0.27-0.05-0.53-0.11-0.79-0.18c-0.53-0.15-1.04-0.35-1.54-0.55c0.87,0.34-0.3-0.13-0.54-0.23
			c-1.21-0.52-2.42-1.04-3.63-1.56c-4.54-1.94-9.08-3.89-13.61-5.83c0.6,2.28,1.2,4.56,1.79,6.84c1.59-3.09,1.54-6.59-0.17-9.64
			c-1.7-3.04-4.73-4.77-8.14-5.02c-2.61-0.2-5.11,2.44-5,5C503.32,291.92,505.4,293.83,508.2,294.04L508.2,294.04z"/>
	</g>
</g>
<g>
	<g>
		<path class="st0" d="M558.21,324.89c-3.19,2.46-6.07,5.13-7.89,8.82c-1.82,3.69-2.88,7.5-2.89,11.65
			c-0.01,3.22,1.84,7.25,4.95,8.63c2.31,1.03,4.19,1.72,6.75,1.81c1.7,0.06,3.57-0.22,5.19-0.79c2.62-0.92,4.85-2.2,7.11-3.76
			c3.75-2.59,7.5-5.18,11.26-7.77c7.37-5.09,14.79-10.13,22.12-15.27c3.58-2.51,7.25-5.14,10.2-8.4c1.66-1.84,3.26-3.86,4.48-6.04
			c1.63-2.91,2.93-6.43,2.64-9.82c-0.31-3.64-1.58-7.07-4.27-9.64c-2-1.9-4.63-3.36-7.34-3.9c-3.15-0.63-5.65-0.52-8.79-0.04
			c-2.23,0.34-4.24,1.23-6.29,2.18c-8.49,3.94-14.98,11.1-22.24,16.81c0.67-0.52,1.35-1.04,2.02-1.56
			c-2.95,2.28-6.11,4.28-9.55,5.76c0.8-0.34,1.59-0.67,2.39-1.01c-2.08,0.86-4.21,1.5-6.44,1.83c0.89-0.12,1.77-0.24,2.66-0.36
			c-1.79,0.23-3.56,0.25-5.35,0.01c0.89,0.12,1.77,0.24,2.66,0.36c-1.5-0.23-2.94-0.63-4.34-1.2c0.8,0.34,1.59,0.67,2.39,1.01
			c-1.61-0.69-3.1-1.58-4.49-2.64c0.67,0.52,1.35,1.04,2.02,1.56c-2.07-1.62-3.86-3.54-5.47-5.62c0.52,0.67,1.04,1.35,1.56,2.02
			c-3-3.96-5.7-8.47-7.66-13.04c0.34,0.8,0.67,1.59,1.01,2.39c-0.66-1.6-1.15-3.24-1.4-4.95c0.12,0.89,0.24,1.77,0.36,2.66
			c-0.12-0.99-0.15-1.98-0.03-2.97c-0.12,0.89-0.24,1.77-0.36,2.66c0.09-0.54,0.22-1.06,0.42-1.57c-0.34,0.8-0.67,1.59-1.01,2.39
			c0.18-0.4,0.39-0.77,0.65-1.13c-0.52,0.67-1.04,1.35-1.56,2.02c0.23-0.28,0.46-0.52,0.73-0.75c-0.67,0.52-1.35,1.04-2.02,1.56
			c0.38-0.29,0.77-0.52,1.21-0.72c-0.8,0.34-1.59,0.67-2.39,1.01c0.38-0.15,0.74-0.25,1.14-0.33c-0.89,0.12-1.77,0.24-2.66,0.36
			c0.52-0.07,1.02-0.07,1.55-0.03c-0.89-0.12-1.77-0.24-2.66-0.36c0.81,0.12,1.56,0.34,2.32,0.65c-0.8-0.34-1.59-0.67-2.39-1.01
			c2.17,0.97,4.04,2.44,5.95,3.84c1.99,1.45,3.97,2.91,5.96,4.36c4.11,3,8.21,6.01,12.32,9.01c1.68-6.21,3.36-12.42,5.05-18.63
			c-3.82-0.15-7.64-0.29-11.46-0.44c-4.2-0.16-8.7,3.2-9.64,7.34c-0.4,1.76-0.4,3.56,0,5.32c0.5,2.19,2.53,4.99,4.6,5.98
			c4.41,2.1,8.97,4.35,13.81,5.26c5.98,1.12,11.73,0.85,17.23-1.93c3.9-1.97,7.62-5.69,9.38-9.69c1.23-2.79,2.11-5.47,2.01-8.59
			c-0.09-2.96-0.9-6.05-2.49-8.57c-5.41-8.54-15.99-10.26-24.99-12.8c-8.73-2.46-17.46-4.93-26.18-7.39
			c-9.85-2.78-19.7-5.56-29.55-8.34c2.33,4.1,4.66,8.2,6.98,12.3c0.5-1.31,1.02-2.61,1.56-3.9c-0.34,0.8-0.67,1.59-1.01,2.39
			c1.25-2.94,2.61-5.82,4.1-8.64c1.38-2.62,2.78-5.34,4.58-7.7c-0.52,0.67-1.04,1.35-1.56,2.02c0.46-0.57,0.94-1.09,1.51-1.55
			c-0.67,0.52-1.35,1.04-2.02,1.56c0.38-0.28,0.76-0.51,1.18-0.71c-0.8,0.34-1.59,0.67-2.39,1.01c0.33-0.13,0.64-0.22,0.99-0.29
			c-0.89,0.12-1.77,0.24-2.66,0.36c0.37-0.04,0.7-0.05,1.08-0.03c-0.89-0.12-1.77-0.24-2.66-0.36c0.48,0.07,0.92,0.19,1.37,0.38
			c-0.8-0.34-1.59-0.67-2.39-1.01c0.56,0.27,1.07,0.59,1.56,0.96c-0.67-0.52-1.35-1.04-2.02-1.56c1.93,1.57,3.52,3.59,5.18,5.44
			c1.95,2.15,3.9,4.31,5.84,6.46c3.79,4.19,7.78,8.27,11.39,12.62c-0.52-0.67-1.04-1.35-1.56-2.02c0.17,0.21,0.32,0.44,0.44,0.69
			c-0.34-0.8-0.67-1.59-1.01-2.39c0.12,0.3,0.2,0.53,0.25,0.85c-0.12-0.89-0.24-1.77-0.36-2.66c0.02,0.14,0.02,0.28,0.01,0.43
			c0.12-0.89,0.24-1.77,0.36-2.66c-0.03,0.2-0.07,0.37-0.14,0.56c0.34-0.8,0.67-1.59,1.01-2.39c-0.05,0.12-0.11,0.22-0.19,0.33
			c0.52-0.67,1.04-1.35,1.56-2.02c-0.13,0.16-0.25,0.28-0.4,0.41c0.67-0.52,1.35-1.04,2.02-1.56c-0.23,0.17-0.47,0.3-0.73,0.41
			c0.8-0.34,1.59-0.67,2.39-1.01c-0.38,0.14-0.75,0.23-1.15,0.29c0.89-0.12,1.77-0.24,2.66-0.36c-0.72,0.08-1.42,0.07-2.13-0.03
			c0.89,0.12,1.77,0.24,2.66,0.36c-0.65-0.11-1.26-0.27-1.87-0.51c0.8,0.34,1.59,0.67,2.39,1.01c-0.49-0.21-0.95-0.46-1.38-0.78
			c0.67,0.52,1.35,1.04,2.02,1.56c-4.1-3.23-7.54-7.37-12.17-9.9c-6.24-3.42-13.55-4.09-19.99-0.83c-2.73,1.38-5.34,4.05-6.72,6.77
			c-1.43,2.84-2.27,5.94-2.19,9.14c0.15,5.87,2.65,11.72,7.07,15.64c4.76,4.21,10.5,6.45,16.48,8.35c4.99,1.59,11.13-1.86,12.3-6.98
			c1.24-5.46-1.65-10.6-6.98-12.3c-2.03-0.65-4.06-1.32-6.03-2.14c0.8,0.34,1.59,0.67,2.39,1.01c-1.82-0.79-3.55-1.71-5.14-2.9
			c0.67,0.52,1.35,1.04,2.02,1.56c-1-0.78-1.91-1.64-2.7-2.64c0.52,0.67,1.04,1.35,1.56,2.02c-0.59-0.79-1.07-1.64-1.46-2.55
			c0.34,0.8,0.67,1.59,1.01,2.39c-0.37-0.92-0.63-1.86-0.78-2.84c0.12,0.89,0.24,1.77,0.36,2.66c-0.12-0.96-0.14-1.91-0.03-2.87
			c-0.12,0.89-0.24,1.77-0.36,2.66c0.11-0.73,0.29-1.41,0.55-2.09c-0.34,0.8-0.67,1.59-1.01,2.39c0.25-0.57,0.54-1.09,0.9-1.59
			c-0.52,0.67-1.04,1.35-1.56,2.02c0.39-0.5,0.82-0.93,1.32-1.33c-0.67,0.52-1.35,1.04-2.02,1.56c0.51-0.36,1.02-0.66,1.59-0.91
			c-0.8,0.34-1.59,0.67-2.39,1.01c0.69-0.27,1.38-0.44,2.11-0.54c-0.89,0.12-1.77,0.24-2.66,0.36c0.88-0.09,1.73-0.07,2.6,0.03
			c-0.89-0.12-1.77-0.24-2.66-0.36c1.15,0.17,2.24,0.48,3.31,0.91c-0.8-0.34-1.59-0.67-2.39-1.01c1.5,0.65,2.83,1.52,4.12,2.51
			c-0.67-0.52-1.35-1.04-2.02-1.56c2.57,2.05,4.82,4.45,7.4,6.49c2.15,1.71,3.86,2.84,6.58,3.63c1.75,0.51,3.67,0.76,5.5,0.66
			c5.68-0.32,11.06-3.37,12.6-9.19c0.88-3.33,0.21-7.01-1.68-9.87c-1.43-2.16-3.37-4.05-5.11-5.97
			c-5.01-5.54-10.02-11.08-15.03-16.61c-2.97-3.28-6.06-6.52-10.49-7.73c-3.59-0.98-7.19-0.45-10.47,1.19
			c-2.7,1.35-4.52,3.49-6.28,5.85c-2.18,2.94-3.9,6.3-5.54,9.56c-2.14,4.24-4.01,8.62-5.7,13.06c-0.84,2.2-0.24,5.77,1.01,7.71
			c1.42,2.2,3.41,3.87,5.98,4.6c18.42,5.2,36.83,10.39,55.25,15.59c4.67,1.32,9.56,2.35,14.05,4.19c-0.8-0.34-1.59-0.67-2.39-1.01
			c1.2,0.51,2.32,1.11,3.37,1.9c-0.67-0.52-1.35-1.04-2.02-1.56c0.63,0.51,1.19,1.05,1.69,1.68c-0.52-0.67-1.04-1.35-1.56-2.02
			c0.41,0.56,0.74,1.14,1.02,1.77c-0.34-0.8-0.67-1.59-1.01-2.39c0.23,0.6,0.38,1.2,0.47,1.84c-0.12-0.89-0.24-1.77-0.36-2.66
			c0.06,0.63,0.05,1.24-0.03,1.87c0.12-0.89,0.24-1.77,0.36-2.66c-0.12,0.74-0.31,1.44-0.58,2.14c0.34-0.8,0.67-1.59,1.01-2.39
			c-0.39,0.92-0.89,1.76-1.49,2.55c0.52-0.67,1.04-1.35,1.56-2.02c-0.71,0.89-1.51,1.68-2.42,2.38c0.67-0.52,1.35-1.04,2.02-1.56
			c-0.83,0.61-1.71,1.12-2.66,1.53c0.8-0.34,1.59-0.67,2.39-1.01c-0.88,0.35-1.77,0.59-2.71,0.75c0.89-0.12,1.77-0.24,2.66-0.36
			c-1.65,0.22-3.28,0.2-4.93,0c0.89,0.12,1.77,0.24,2.66,0.36c-2.74-0.4-5.35-1.27-7.9-2.32c0.8,0.34,1.59,0.67,2.39,1.01
			c-1.57-0.66-3.1-1.38-4.64-2.11c-1.68,6.21-3.36,12.42-5.05,18.63c3.82,0.15,7.64,0.29,11.46,0.44c4.2,0.16,8.7-3.2,9.64-7.34
			c0.4-1.76,0.4-3.56,0-5.32c-0.6-2.63-2.53-4.46-4.6-5.98c-4.17-3.05-8.35-6.1-12.52-9.16c-4.52-3.31-8.83-7.02-14.1-9.06
			c-6.75-2.63-15.42,0-18.78,6.67c-2.52,5.01-2.44,10.85-0.62,16.09c1.44,4.16,3.6,8.12,5.88,11.89c2.34,3.87,5.05,7.7,8.34,10.83
			c3.73,3.55,8.24,6.4,13.25,7.73c5.56,1.47,11.69,1.16,17.12-0.68c6.31-2.14,11.61-5.6,16.76-9.73c3.86-3.1,7.44-6.51,11.35-9.54
			c-0.67,0.52-1.35,1.04-2.02,1.56c2.7-2.07,5.56-3.98,8.69-5.34c-0.8,0.34-1.59,0.67-2.39,1.01c1.05-0.42,2.13-0.71,3.25-0.88
			c-0.89,0.12-1.77,0.24-2.66,0.36c1.02-0.13,2.02-0.15,3.04-0.03c-0.89-0.12-1.77-0.24-2.66-0.36c0.66,0.1,1.29,0.25,1.91,0.5
			c-0.8-0.34-1.59-0.67-2.39-1.01c0.41,0.18,0.78,0.39,1.15,0.65c-0.67-0.52-1.35-1.04-2.02-1.56c0.27,0.22,0.51,0.45,0.74,0.71
			c-0.52-0.67-1.04-1.35-1.56-2.02c0.22,0.29,0.39,0.57,0.55,0.9c-0.34-0.8-0.67-1.59-1.01-2.39c0.16,0.4,0.27,0.78,0.35,1.21
			c-0.12-0.89-0.24-1.77-0.36-2.66c0.04,0.43,0.04,0.81,0.01,1.24c0.12-0.89,0.24-1.77,0.36-2.66c-0.1,0.71-0.29,1.36-0.55,2.03
			c0.34-0.8,0.67-1.59,1.01-2.39c-0.65,1.49-1.52,2.86-2.51,4.15c0.52-0.67,1.04-1.35,1.56-2.02c-1.75,2.21-3.83,4.09-6.05,5.82
			c0.67-0.52,1.35-1.04,2.02-1.56c-6.45,4.96-13.37,9.37-20.07,13.99c-3.55,2.45-7.09,4.9-10.64,7.34
			c-1.77,1.22-3.55,2.45-5.32,3.67c-1.6,1.1-3.16,2.24-4.94,3.02c0.8-0.34,1.59-0.67,2.39-1.01c-0.64,0.25-1.27,0.44-1.95,0.55
			c0.89-0.12,1.77-0.24,2.66-0.36c-0.4,0.04-0.76,0.05-1.16,0.02c0.89,0.12,1.77,0.24,2.66,0.36c-0.4-0.06-0.75-0.14-1.14-0.27
			c0.8,0.34,1.59,0.67,2.39,1.01c-0.12-0.05-0.25-0.11-0.37-0.16c1.65,2.88,3.3,5.76,4.95,8.63c0-0.64,0.04-1.26,0.11-1.89
			c-0.12,0.89-0.24,1.77-0.36,2.66c0.19-1.39,0.56-2.72,1.1-4.02c-0.34,0.8-0.67,1.59-1.01,2.39c0.52-1.17,1.16-2.24,1.93-3.26
			c-0.52,0.67-1.04,1.35-1.56,2.02c0.72-0.9,1.51-1.7,2.4-2.43c-0.67,0.52-1.35,1.04-2.02,1.56c0.1-0.08,0.2-0.15,0.3-0.23
			c2.16-1.67,3.84-3.23,4.6-5.98c0.66-2.39,0.36-5.58-1.01-7.71c-1.38-2.14-3.43-4.01-5.98-4.6
			C563.48,323.33,560.28,323.29,558.21,324.89L558.21,324.89z"/>
	</g>
</g>
<g>
	<g>
		<path class="st0" d="M572.22,287.83c0.16-0.37,0.35-0.7,0.59-1.03c-0.52,0.67-1.04,1.35-1.56,2.02c0.25-0.3,0.52-0.57,0.82-0.82
			c-0.67,0.52-1.35,1.04-2.02,1.56c0.4-0.3,0.82-0.53,1.27-0.73c-0.8,0.34-1.59,0.67-2.39,1.01c0.58-0.22,1.15-0.37,1.76-0.45
			c-0.89,0.12-1.77,0.24-2.66,0.36c0.63-0.06,1.23-0.06,1.86,0.01c-0.89-0.12-1.77-0.24-2.66-0.36c0.62,0.09,1.2,0.25,1.78,0.47
			c-0.8-0.34-1.59-0.67-2.39-1.01c0.81,0.36,1.54,0.79,2.25,1.31c-0.67-0.52-1.35-1.04-2.02-1.56c1.5,1.18,2.73,2.61,3.9,4.12
			c-0.52-0.67-1.04-1.35-1.56-2.02c3.34,4.34,6.63,8.74,9.94,13.11c1.64,2.16,3.25,3.85,5.98,4.6c2.39,0.66,5.58,0.36,7.71-1.01
			c2.14-1.38,4.01-3.43,4.6-5.98c0.56-2.44,0.58-5.61-1.01-7.71c-2.31-3.05-4.62-6.1-6.93-9.15c-2.4-3.17-4.63-6.7-7.6-9.38
			c-3.71-3.33-8.4-5.77-13.52-5.47c-2.76,0.16-5.37,0.79-7.78,2.18c-2.24,1.29-4.55,3.45-5.6,5.84c-1.13,2.54-1.78,4.91-1.01,7.71
			c0.64,2.32,2.43,4.83,4.6,5.98c2.32,1.23,5.13,1.84,7.71,1.01C568.56,291.68,571.19,290.16,572.22,287.83L572.22,287.83z"/>
	</g>
</g>
<g>
	<g>
		<path class="st0" d="M571.14,257.58c-4.92,0.91-9.29,5.29-10.11,10.24c-0.27,1.64-0.14,3.01,0.89,4.36
			c0.87,1.13,2.41,2.14,3.93,1.97c7.47-0.84,14.03-4.12,20.33-8.07c2.88-1.8,5.71-3.69,8.63-5.42c1.45-0.86,2.93-1.67,4.44-2.41
			c0.4-0.19,0.8-0.38,1.2-0.56c0.15-0.07,0.3-0.13,0.45-0.2c0.5-0.24-0.44,0.21-0.44,0.19c0.02-0.23,2.18-0.81,2.45-0.89
			c0.72-0.23,1.44-0.43,2.18-0.6c0.42-0.1,0.84-0.18,1.26-0.26c0.16-0.03,0.32-0.04,0.48-0.08c0.62-0.14-1.3,0.12-0.21,0.03
			c0.76-0.06,1.52-0.12,2.28-0.12c0.39,0,0.77,0.01,1.16,0.03c0.23,0.01,0.45,0.03,0.68,0.05c0.5,0.04,0.8,0.34-0.1-0.03
			c0.71,0.29,1.64,0.31,2.4,0.52c0.39,0.11,0.78,0.24,1.16,0.37c0.16,0.06,0.33,0.12,0.49,0.18c1.08,0.39-0.67-0.33-0.07-0.03
			c0.79,0.39,1.57,0.76,2.32,1.22c0.3,0.18,0.6,0.37,0.89,0.56c0.19,0.13,0.39,0.26,0.58,0.4c0.14,0.1,0.9,0.75,0.34,0.24
			c-0.5-0.45,0.4,0.35,0.58,0.51c0.31,0.27,0.61,0.55,0.91,0.84c0.68,0.66,1.32,1.36,1.92,2.09c0.74,0.9-0.3-0.46,0.2,0.26
			c0.24,0.34,0.48,0.68,0.71,1.03c0.49,0.75,0.95,1.52,1.36,2.32c0.22,0.42,0.42,0.86,0.63,1.29c0.39,0.82-0.34-0.89,0.12,0.29
			c0.32,0.83,0.6,1.69,0.83,2.55c0.22,0.81,0.38,1.62,0.53,2.44c0.15,0.86,0.02-0.03-0.01-0.16c0.06,0.25,0.06,0.57,0.09,0.81
			c0.05,0.54,0.08,1.08,0.1,1.63c0.04,1.08,0.01,2.17-0.06,3.25c-0.02,0.27-0.04,0.54-0.07,0.81c-0.01,0.15-0.17,1.28-0.06,0.55
			c0.1-0.65-0.01,0.04-0.03,0.14c-0.06,0.33-0.11,0.67-0.18,1c-0.43,2.22-1.1,4.36-1.91,6.47c-0.34,0.88-0.04,0.11,0.03-0.05
			c-0.14,0.31-0.28,0.63-0.42,0.94c-0.23,0.5-0.47,0.99-0.72,1.48c-0.53,1.04-1.11,2.06-1.73,3.06c-0.58,0.94-1.2,1.85-1.85,2.74
			c-0.16,0.22-0.33,0.44-0.49,0.66c0.42-0.55,0.18-0.23-0.11,0.12c-0.39,0.48-0.79,0.95-1.19,1.42c2.79,0.74,5.57,1.47,8.36,2.21
			c-0.05-0.19-0.08-0.41-0.14-0.6c-0.2-0.58,0.02,0.32,0.02,0.33c-0.14-0.27-0.07-0.89-0.07-1.2c0-0.47,0.04-0.92,0.07-1.39
			c0.03-0.62-0.04,0.35-0.05,0.34c-0.06-0.09,0.13-0.68,0.15-0.79c0.17-0.8,0.41-1.59,0.67-2.36c0.16-0.46,0.33-0.92,0.5-1.37
			c0.08-0.2,0.16-0.39,0.23-0.59c-0.17,0.43-0.21,0.48-0.01,0.02c1.55-3.54,3.39-7.04,4.32-10.82c1.79-7.35,0.81-15.03-2.42-21.83
			c-6.41-13.5-22.95-20.35-37.13-16.07c-8.49,2.56-15.38,8.31-22.01,13.97c-1.89,1.62-1.81,4.73-0.39,6.57
			c1.65,2.13,4.11,2.28,6.45,1.29c2.78-1.18,5.57-2.36,8.35-3.54c-2.51-1.44-5.02-2.88-7.52-4.32c-0.53,6.69-0.93,13.46,0.65,20.05
			c1.36,5.67,4.44,10.99,8.7,14.98c4.06,3.8,9.22,6.68,14.76,7.53c5.9,0.91,11.76-0.08,17.02-2.94c5.19-2.82,9.22-7.36,11.43-12.81
			c2.01-4.95,1.98-10.76,0.19-15.77c-3.72-10.42-13.64-18.42-24.98-18.1c-12.81,0.36-24.48,10.15-27.48,22.55
			c-0.61,2.54,0.8,5.54,3.49,6.15c2.57,0.59,5.49-0.77,6.15-3.49c0.25-1.05,0.59-2.05,0.95-3.06c0.4-1.11-0.36,0.72-0.02,0.05
			c0.13-0.27,0.25-0.54,0.38-0.8c0.26-0.53,0.55-1.05,0.85-1.56c0.24-0.41,0.5-0.81,0.76-1.21c0.17-0.25,0.34-0.49,0.51-0.73
			c0.24-0.33,0.4-0.92-0.02,0.02c0.4-0.9,1.59-1.83,2.29-2.5c0.39-0.37,0.78-0.73,1.19-1.08c0.13-0.11,0.38-0.38,0.55-0.45
			c-0.94,0.43-0.35,0.27-0.02,0.03c0.91-0.66,1.86-1.26,2.85-1.8c0.47-0.25,0.94-0.49,1.42-0.71c0.47-0.21,0.64-0.6-0.06,0.02
			c0.12-0.1,0.54-0.21,0.66-0.25c1.1-0.4,2.23-0.72,3.38-0.95c0.23-0.05,0.46-0.08,0.69-0.12c0.97-0.17-0.25,0-0.29,0.03
			c0.23-0.2,1.45-0.12,1.75-0.12c0.47-0.01,0.94-0.01,1.41,0.01c0.24,0.01,0.47,0.02,0.71,0.04c0.24,0.02,0.47,0.04,0.71,0.07
			c-0.21-0.03-0.43-0.06-0.64-0.09c0.18-0.13,1.44,0.27,1.66,0.33c0.44,0.11,0.87,0.23,1.3,0.37c0.27,0.09,0.53,0.18,0.79,0.28
			c0.72,0.27,0.45-0.15-0.1-0.06c0.35-0.06,1.18,0.57,1.51,0.74c0.84,0.46,1.68,1.3,2.55,1.64c-0.11-0.04-0.88-0.73-0.21-0.16
			c0.17,0.15,0.35,0.29,0.52,0.44c0.47,0.41,0.92,0.84,1.35,1.28c0.35,0.36,0.7,0.74,1.03,1.13c0.05,0.06,0.4,0.4,0.43,0.52
			c-0.17-0.73-0.43-0.58-0.06-0.07c0.63,0.87,1.19,1.78,1.69,2.72c0.13,0.25,0.26,0.5,0.38,0.75c0.23,0.48,0.59,0.57-0.03-0.12
			c0.24,0.27,0.35,0.91,0.47,1.25c0.36,1.06,0.6,2.13,0.81,3.22c0.14,0.77-0.15-0.29-0.05-0.34c-0.01,0,0.05,0.57,0.06,0.66
			c0.04,0.55,0.05,1.1,0.04,1.65c-0.01,0.44-0.05,0.88-0.08,1.33c-0.07,1.12,0.18-0.89,0.02-0.17c-0.07,0.33-0.12,0.66-0.2,0.99
			c-0.12,0.5-0.26,1-0.42,1.49c-0.07,0.22-0.16,0.44-0.23,0.66c-0.31,0.88,0.1-0.14,0.11-0.22c-0.04,0.44-0.57,1.18-0.78,1.56
			c-0.29,0.51-0.59,1-0.93,1.48c-0.09,0.13-0.27,0.45-0.41,0.57c0.82-0.66,0.29-0.37,0.02-0.06c-0.34,0.4-0.69,0.79-1.06,1.16
			c-0.37,0.37-0.76,0.73-1.15,1.08c-0.2,0.17-0.44,0.46-0.67,0.56c0.15-0.12,0.3-0.23,0.46-0.35c-0.19,0.14-0.38,0.28-0.57,0.41
			c-0.82,0.57-1.68,1.09-2.57,1.55c-0.26,0.13-0.53,0.26-0.79,0.39c-0.39,0.2-0.61,0.05,0.22-0.08c-0.54,0.08-1.13,0.43-1.66,0.6
			c-1.02,0.32-2.04,0.54-3.09,0.74c-1.16,0.22,0.86-0.06,0.1-0.02c-0.29,0.02-0.59,0.05-0.88,0.07c-0.59,0.03-1.18,0.04-1.76,0.02
			c-0.47-0.01-0.95-0.06-1.42-0.1c-1.19-0.09,0.82,0.17,0.08,0.01c-0.29-0.06-0.59-0.1-0.89-0.17c-1.11-0.23-2.21-0.56-3.27-0.96
			c-0.39-0.15-1.01-0.14,0.03,0.03c-0.18-0.03-0.51-0.23-0.65-0.3c-0.49-0.23-0.96-0.49-1.43-0.75c-0.47-0.27-0.93-0.55-1.38-0.85
			c-0.2-0.13-0.4-0.27-0.6-0.41c-0.15-0.1-0.29-0.21-0.44-0.32c-0.29-0.22-0.2-0.14,0.29,0.23c-0.04-0.27-1.16-0.97-1.38-1.17
			c-0.49-0.45-0.97-0.92-1.42-1.4c-0.38-0.41-1.07-0.99-1.31-1.51c0.05,0.11,0.65,0.89,0.12,0.15c-0.21-0.29-0.43-0.59-0.63-0.89
			c-0.71-1.05-1.34-2.16-1.89-3.31c-0.08-0.16-0.44-0.86-0.12-0.23c0.34,0.68-0.16-0.43-0.22-0.58c-0.26-0.71-0.49-1.44-0.69-2.17
			c-0.2-0.73-0.37-1.47-0.51-2.22c-0.06-0.3-0.1-0.6-0.16-0.9c-0.23-1.19,0.04,0.63-0.07-0.47c-0.16-1.67-0.26-3.34-0.27-5.02
			c-0.01-3.23,0.24-6.45,0.49-9.66c0.14-1.72-1.05-3.48-2.48-4.32c-1.69-0.99-3.34-0.72-5.05,0c-2.78,1.18-5.57,2.36-8.35,3.54
			c2.02,2.62,4.04,5.24,6.06,7.85c1.28-1.1,2.57-2.19,3.87-3.26c0.66-0.54,1.32-1.07,1.98-1.59c-0.9,0.71,0.21-0.16,0.33-0.25
			c0.45-0.34,0.9-0.67,1.36-1c1.25-0.89,2.54-1.74,3.86-2.52c0.72-0.42,1.45-0.82,2.19-1.2c0.37-0.19,0.74-0.37,1.12-0.54
			c0.25-0.12,0.5-0.23,0.76-0.34c-0.56,0.23-0.57,0.25-0.04,0.03c1.55-0.55,3.09-1.06,4.71-1.38c0.34-0.07,0.76-0.2,1.11-0.19
			c-1.3-0.05-0.16,0.03,0.16,0c0.75-0.07,1.49-0.1,2.24-0.1c0.75,0,1.5,0.03,2.24,0.09c0.36,0.03,0.77,0.03,1.12,0.11
			c-1.32-0.32-0.12,0,0.15,0.05c1.6,0.29,3.17,0.72,4.7,1.28c0.22,0.08,1.43,0.49,0.2,0.05c0.35,0.12,0.69,0.31,1.02,0.47
			c0.56,0.27,1.12,0.56,1.66,0.87c0.65,0.37,1.29,0.77,1.9,1.19c0.3,0.21,0.64,0.41,0.91,0.66c-0.97-0.9,0.25,0.23,0.44,0.4
			c1.09,0.95,2.32,2.04,3.12,3.26c-0.69-1.05,0,0.03,0.13,0.21c0.22,0.31,0.43,0.63,0.63,0.95c0.41,0.64,0.79,1.3,1.14,1.97
			c0.17,0.34,0.34,0.68,0.5,1.02c0.12,0.26,0.75,1.24,0.1,0.2c0.38,0.6,0.55,1.48,0.76,2.15c0.22,0.73,0.41,1.46,0.58,2.21
			c0.08,0.37,0.15,0.74,0.22,1.12c0.04,0.25,0.08,0.5,0.12,0.75c-0.09-0.7-0.1-0.77-0.04-0.2c0.11,1.39,0.19,2.77,0.12,4.17
			c-0.02,0.38-0.05,0.76-0.08,1.14c-0.03,0.31,0.04,1.47,0,0.18c0.03,0.82-0.33,1.81-0.53,2.6c-0.23,0.88-0.51,1.75-0.83,2.6
			c-0.15,0.39-0.31,0.79-0.46,1.18c0.44-1.1-0.26,0.57-0.34,0.76c-0.87,1.96-1.78,3.9-2.58,5.89c-1.68,4.15-2.47,8.53-1.39,12.94
			c0.86,3.5,5.89,5.04,8.36,2.21c6.31-7.25,10.64-15.97,11.59-25.6c0.87-8.85-2.06-17.61-7.93-24.26
			c-5.45-6.18-13.73-9.96-22.02-9.09c-7.76,0.81-14.48,4.55-20.96,8.66c-3.4,2.16-6.77,4.4-10.33,6.27
			c-0.9,0.47-1.81,0.92-2.74,1.34c-0.12,0.05-0.46,0.26-0.62,0.27c0.44-0.04,0.84-0.34,0.11-0.06c-0.47,0.18-0.94,0.36-1.41,0.52
			c-0.94,0.33-1.9,0.61-2.87,0.84c-0.43,0.1-0.87,0.2-1.3,0.28c-0.22,0.04-0.44,0.07-0.66,0.11c-1,0.19,1.1-0.13,0,0
			c1.61,2.11,3.21,4.22,4.82,6.33c0.06-0.34,0.12-0.68,0.22-1.02c0.06-0.22,0.14-0.44,0.22-0.66c-0.07,0.19-0.15,0.37-0.22,0.56
			c-0.07-0.13,0.43-0.74,0.52-0.9c0.48-0.83-0.66,0.69,0.21-0.2c0.13-0.13,1.04-0.82,0.41-0.41c-0.66,0.42,0.38-0.21,0.51-0.28
			c0.15-0.09,0.31-0.17,0.46-0.24c-0.61,0.25-0.74,0.31-0.39,0.18c0.4-0.09,0.78-0.22,1.18-0.29c2.58-0.48,4.27-3.73,3.49-6.15
			C576.4,258.32,573.9,257.07,571.14,257.58L571.14,257.58z"/>
	</g>
</g>
</svg>
